<svg width="90" height="182" viewBox="0 0 90 182" fill="none" xmlns="http://www.w3.org/2000/svg">
<path d="M87 130.853L87 132.681L77.5455 129.353L77.5455 127.239L87 123.906L87 125.734L79.4844 128.259L79.4844 128.333L87 130.853ZM83.293 130.793L83.293 125.808L84.6687 125.808L84.6687 130.793L83.293 130.793ZM80.5646 106.631C80.3153 106.708 80.0922 106.814 79.8952 106.949C79.6952 107.082 79.5244 107.242 79.3828 107.429C79.2412 107.614 79.1351 107.826 79.0643 108.066C78.9904 108.307 78.9535 108.568 78.9535 108.851C78.9535 109.359 79.0812 109.812 79.3366 110.209C79.5921 110.606 79.9676 110.918 80.4631 111.146C80.9555 111.37 81.5556 111.483 82.2635 111.483C82.9775 111.483 83.5823 111.37 84.0778 111.146C84.5733 110.921 84.9503 110.609 85.2088 110.209C85.4643 109.808 85.592 109.344 85.592 108.814C85.592 108.334 85.4996 107.919 85.315 107.568C85.1303 107.214 84.8687 106.942 84.5302 106.751C84.1886 106.56 83.7885 106.465 83.3299 106.465L83.3899 106.077L83.3899 108.644L82.0511 108.644L82.0511 104.807L83.1868 104.807C83.9962 104.807 84.6964 104.98 85.2873 105.324C85.8782 105.669 86.3337 106.143 86.6538 106.746C86.9708 107.349 87.1293 108.042 87.1293 108.824C87.1293 109.695 86.9338 110.459 86.543 111.118C86.149 111.774 85.5904 112.286 84.8672 112.655C84.1409 113.022 83.2791 113.205 82.282 113.205C81.5187 113.205 80.837 113.097 80.2369 112.881C79.6367 112.663 79.1274 112.358 78.7088 111.967C78.2872 111.577 77.9671 111.118 77.7486 110.592C77.527 110.065 77.4162 109.493 77.4162 108.874C77.4162 108.351 77.4931 107.863 77.647 107.411C77.7978 106.959 78.0133 106.557 78.2933 106.206C78.5734 105.852 78.9058 105.561 79.2905 105.334C79.6752 105.106 80.0999 104.957 80.5646 104.886L80.5646 106.631ZM87 93.0111L77.5455 93.0111L77.5455 86.862L78.9812 86.862L78.9812 91.2984L81.5479 91.2984L81.5479 87.1805L82.9837 87.1805L82.9837 91.2984L85.5643 91.2984L85.5643 86.825L87 86.825L87 93.0111ZM77.5455 67.2051L87 67.2051L87 68.7285L80.56 73.1834L80.56 73.2619L87 73.2619L87 74.9746L77.5455 74.9746L77.5455 73.4419L83.9901 68.9917L83.9901 68.9086L77.5455 68.9086L77.5455 67.2051ZM78.9812 55.6144L77.5455 55.6144L77.5455 48.071L78.9812 48.071L78.9812 50.9933L87 50.9933L87 52.6921L78.9812 52.6921L78.9812 55.6144Z" fill="black"/>
<path d="M14 104.763V72.8508C14 71.9055 12.8096 71.4879 12.2191 72.2261L0.462166 86.9223C0.187548 87.2656 0.169314 87.7479 0.417233 88.1109L12.1742 105.327C12.7289 106.139 14 105.746 14 104.763Z" fill="black"/>
<path d="M57.82 132.582C57.82 134.95 57.5 136.902 56.86 138.438C56.22 139.974 55.3773 141.126 54.332 141.894C53.2867 142.662 52.1773 143.068 51.004 143.11C50.812 143.11 50.652 143.046 50.524 142.918C50.3747 142.769 50.3 142.598 50.3 142.406L50.3 136.326C50.3 135.985 50.3533 135.729 50.46 135.558C50.5453 135.366 50.6733 135.164 50.844 134.95C50.9933 134.737 51.132 134.524 51.26 134.31C51.3667 134.076 51.452 133.82 51.516 133.542C51.5587 133.244 51.58 132.924 51.58 132.582C51.58 131.857 51.5053 131.281 51.356 130.854C51.1853 130.406 50.9613 130.182 50.684 130.182C50.428 130.182 50.2147 130.31 50.044 130.566C49.8733 130.801 49.724 131.217 49.596 131.814C49.4467 132.412 49.308 133.244 49.18 134.31C48.9453 135.996 48.5507 137.457 47.996 138.694C47.4413 139.932 46.684 140.892 45.724 141.574C44.7427 142.236 43.548 142.566 42.14 142.566C40.6893 142.566 39.4093 142.161 38.3 141.35C37.1907 140.518 36.3267 139.377 35.708 137.926C35.0893 136.454 34.78 134.748 34.78 132.806C34.78 131.206 34.9933 129.788 35.42 128.55C35.8253 127.313 36.3693 126.268 37.052 125.414C37.7133 124.561 38.428 123.91 39.196 123.462C39.964 123.014 40.7 122.78 41.404 122.758C41.596 122.758 41.7667 122.833 41.916 122.982C42.044 123.11 42.108 123.26 42.108 123.43L42.108 129.83C42.108 130.129 42.0653 130.374 41.98 130.566C41.8947 130.737 41.7667 130.918 41.596 131.11C41.4893 131.217 41.372 131.42 41.244 131.718C41.0947 131.996 41.02 132.358 41.02 132.806C41.02 133.34 41.1053 133.734 41.276 133.99C41.4253 134.225 41.6387 134.342 41.916 134.342C42.108 134.342 42.2893 134.246 42.46 134.054C42.6307 133.862 42.78 133.51 42.908 132.998C43.036 132.486 43.164 131.75 43.292 130.79C43.548 128.657 43.964 126.95 44.54 125.67C45.0947 124.369 45.8413 123.43 46.78 122.854C47.7187 122.257 48.8813 121.958 50.268 121.958C51.8253 121.958 53.1693 122.428 54.3 123.366C55.4307 124.284 56.3053 125.542 56.924 127.142C57.5213 128.742 57.82 130.556 57.82 132.582ZM57.5 118.75C57.5 118.984 57.4147 119.187 57.244 119.358C57.0733 119.528 56.8707 119.614 56.636 119.614L35.964 119.614C35.7293 119.614 35.5267 119.528 35.356 119.358C35.1853 119.187 35.1 118.984 35.1 118.75L35.1 102.334C35.1 102.099 35.1853 101.896 35.356 101.726C35.5267 101.555 35.7293 101.47 35.964 101.47L40.476 101.47C40.7107 101.47 40.9133 101.555 41.084 101.726C41.2547 101.896 41.34 102.099 41.34 102.334L41.34 111.934L43.356 111.934L43.356 103.038C43.356 102.803 43.4413 102.6 43.612 102.43C43.7827 102.259 43.9853 102.174 44.22 102.174L48.38 102.174C48.6147 102.174 48.8173 102.259 48.988 102.43C49.1587 102.6 49.244 102.803 49.244 103.038L49.244 111.934L51.26 111.934L51.26 102.078C51.26 101.843 51.3453 101.64 51.516 101.47C51.6867 101.299 51.8893 101.214 52.124 101.214L56.636 101.214C56.8707 101.214 57.0733 101.299 57.244 101.47C57.4147 101.64 57.5 101.843 57.5 102.078L57.5 118.75ZM57.5 97.406C57.5 97.6407 57.4147 97.8434 57.244 98.014C57.0733 98.1847 56.8707 98.27 56.636 98.27L35.964 98.27C35.7293 98.27 35.5267 98.1847 35.356 98.014C35.1853 97.8434 35.1 97.6407 35.1 97.406L35.1 91.006C35.1 90.7714 35.1853 90.5687 35.356 90.398C35.5267 90.2274 35.7293 90.142 35.964 90.142L50.94 90.142L50.94 81.278C50.94 81.0434 51.0253 80.8407 51.196 80.67C51.3667 80.4994 51.5693 80.414 51.804 80.414L56.636 80.414C56.8707 80.414 57.0733 80.4994 57.244 80.67C57.4147 80.8407 57.5 81.0434 57.5 81.278L57.5 97.406ZM57.5 77.3748C57.5 77.6094 57.4147 77.8121 57.244 77.9828C57.0733 78.1534 56.8707 78.2388 56.636 78.2388L35.964 78.2388C35.7293 78.2388 35.5267 78.1534 35.356 77.9828C35.1853 77.8121 35.1 77.6094 35.1 77.3748L35.1 60.9588C35.1 60.7241 35.1853 60.5214 35.356 60.3508C35.5267 60.1801 35.7293 60.0948 35.964 60.0948L40.476 60.0948C40.7107 60.0948 40.9133 60.1801 41.084 60.3508C41.2547 60.5214 41.34 60.7241 41.34 60.9588L41.34 70.5588L43.356 70.5588L43.356 61.6628C43.356 61.4281 43.4413 61.2254 43.612 61.0548C43.7827 60.8841 43.9853 60.7988 44.22 60.7988L48.38 60.7988C48.6147 60.7988 48.8173 60.8841 48.988 61.0548C49.1587 61.2254 49.244 61.4281 49.244 61.6628L49.244 70.5588L51.26 70.5588L51.26 60.7028C51.26 60.4681 51.3453 60.2654 51.516 60.0948C51.6867 59.9241 51.8893 59.8388 52.124 59.8388L56.636 59.8388C56.8707 59.8388 57.0733 59.9241 57.244 60.0948C57.4147 60.2654 57.5 60.4681 57.5 60.7028L57.5 77.3748ZM57.82 46.9073C57.82 48.9553 57.5213 50.7686 56.924 52.3473C56.3267 53.9259 55.388 55.1846 54.108 56.1233C52.828 57.0406 51.1747 57.5419 49.148 57.6273C48.2733 57.6486 47.3347 57.6593 46.332 57.6593C45.3293 57.6593 44.3693 57.6486 43.452 57.6273C41.468 57.5419 39.836 57.0299 38.556 56.0913C37.276 55.1313 36.3267 53.8619 35.708 52.2833C35.0893 50.6833 34.78 48.8913 34.78 46.9073C34.78 45.5419 34.94 44.2299 35.26 42.9713C35.5587 41.6913 36.0387 40.5393 36.7 39.5153C37.3613 38.4913 38.2147 37.6806 39.26 37.0833C40.284 36.4646 41.5213 36.1446 42.972 36.1233C43.164 36.1233 43.3347 36.1979 43.484 36.3473C43.612 36.4753 43.676 36.6353 43.676 36.8273L43.676 43.3553C43.676 43.6966 43.612 43.9526 43.484 44.1233C43.3347 44.2726 43.0893 44.4113 42.748 44.5393C42.0653 44.7739 41.6067 45.0939 41.372 45.4993C41.1373 45.9046 41.02 46.3846 41.02 46.9393C41.02 47.6433 41.212 48.2086 41.596 48.6353C41.9587 49.0406 42.6307 49.2646 43.612 49.3073C45.3613 49.3713 47.1533 49.3713 48.988 49.3073C49.9693 49.2646 50.652 49.0406 51.036 48.6353C51.3987 48.2086 51.58 47.6433 51.58 46.9393C51.58 46.3846 51.452 45.9046 51.196 45.4993C50.94 45.0726 50.492 44.7526 49.852 44.5393C49.4893 44.4326 49.244 44.2939 49.116 44.1233C48.988 43.9526 48.924 43.6966 48.924 43.3553L48.924 36.8273C48.924 36.6353 48.9987 36.4753 49.148 36.3473C49.276 36.1979 49.436 36.1233 49.628 36.1233C51.0787 36.1446 52.3267 36.4646 53.372 37.0833C54.396 37.6806 55.2387 38.4913 55.9 39.5153C56.5613 40.5393 57.052 41.6913 57.372 42.9713C57.6707 44.2299 57.82 45.5419 57.82 46.9073ZM57.5 27.7585C57.5 27.9932 57.4147 28.1959 57.244 28.3665C57.0733 28.5372 56.8707 28.6225 56.636 28.6225L41.98 28.6225L41.98 33.9345C41.98 34.1692 41.8947 34.3719 41.724 34.5425C41.5533 34.7132 41.3507 34.7985 41.116 34.7985L35.964 34.7985C35.7293 34.7985 35.5267 34.7132 35.356 34.5425C35.1853 34.3719 35.1 34.1692 35.1 33.9345L35.1 15.1825C35.1 14.9479 35.1853 14.7452 35.356 14.5745C35.5267 14.4039 35.7293 14.3185 35.964 14.3185L41.116 14.3185C41.3507 14.3185 41.5533 14.4039 41.724 14.5745C41.8947 14.7452 41.98 14.9479 41.98 15.1825L41.98 20.4945L56.636 20.4945C56.8707 20.4945 57.0733 20.5799 57.244 20.7505C57.4147 20.9212 57.5 21.1239 57.5 21.3585L57.5 27.7585Z" fill="black"/>
<path d="M35.1863 157C35.1863 157 40.3529 155.13 42.6863 152.686C44.8361 150.435 46.5 145.686 46.5 145.686C46.5 145.686 48.3302 150.39 50.6863 152.686C52.898 154.841 57.8137 157 57.8137 157C57.8137 157 52.8901 159.062 50.6863 161.186C48.2882 163.498 46.5 168.314 46.5 168.314C46.5 168.314 44.8785 163.458 42.6863 161.186C40.357 158.773 35.1863 157 35.1863 157Z" fill="black"/>
<rect x="27" y="3" width="39" height="176" rx="19.5" stroke="black" stroke-width="6"/>
</svg>
