<svg width="101" height="63" viewBox="0 0 101 63" fill="none" xmlns="http://www.w3.org/2000/svg">
<path d="M36.7718 2.98994L69.7494 2.98994C85.6299 2.98994 98.5 15.8636 98.5 31.745C98.5 47.6259 85.6259 60.5 69.745 60.5H50.7153C39.7295 60.5 29.6868 54.2923 24.7751 44.4656L13.9131 22.7341C10.7346 16.3747 10.848 11.4585 12.7706 8.29404C14.6804 5.15052 18.918 2.85009 26.0014 2.9304C29.2065 2.96673 32.7833 2.98994 36.7718 2.98994Z" fill="#280000" stroke="#FF0000" stroke-width="5"/>
<path d="M51.0001 16V20H65.5C68.5 20 74 23 74 31.5C74 40 68 43.5 65.5 43.5H51.0001V38H62C63.5 38 68.5 38 68.5 31.5C68.5 25.5 63.3333 25.5 62 25.5H51.0001V29C45 29 37 23.5 37 22.5C37 21.5 46.5 16 51.0001 16Z" fill="#FF0000"/>
</svg>
