<svg width="200" height="1672" viewBox="0 0 200 1672" fill="none" xmlns="http://www.w3.org/2000/svg">
<rect width="200" height="1672" fill="black"/>
<rect x="16" y="414" width="398" height="168" rx="16" transform="rotate(-90 16 414)" fill="black"/>
<path fill-rule="evenodd" clip-rule="evenodd" d="M155 86.0008L169 102.001C169 102.001 157.5 103.501 154 102.001C151.078 100.749 147 97.0008 147 97.0008C147 97.0008 145.883 99.7836 144.5 101.001C142.629 102.648 140 103.001 140 103.001L126 103.001C126 103.001 124 103.001 121.5 101.001C119 99.0008 119 96.0008 119 96.0008L119 86.0008L119 76C119 76 119 73 121.5 71C124 69 126 69 126 69L140 69C140 69 142.629 69.3532 144.5 71C145.883 72.2171 147 75 147 75C147 75 151.078 71.2521 154 70C157.5 68.5 169 70 169 70L155 86.0008ZM132.5 92.5L132.5 80L139.5 86.0008L132.5 92.5Z" fill="white"/>
<path fill-rule="evenodd" clip-rule="evenodd" d="M26 71.0101L52.9366 101.996L69.681 101.996C69.681 101.996 70.9952 102.139 72.8152 100.663C75 98.8919 75 97.3432 75 97.3432L75 77.0546C75 77.0546 74.9993 74.1035 73.1792 72.628C70.8876 70.7702 67.133 71.0101 67.133 71.0101L43.6804 71.0101L50.7526 79.9266L62.7649 81.8341L60.8557 92.6907L49.7423 79.7662L42.6701 71.0101L26 71.0101Z" fill="white"/>
<path fill-rule="evenodd" clip-rule="evenodd" d="M170 35.0101L143.063 65.9963L126.319 65.9963C126.319 65.9963 125.005 66.1387 123.185 64.6631C121 62.8919 121 61.3432 121 61.3432L121 41.0546C121 41.0546 121.001 38.1036 122.821 36.628C125.112 34.7702 128.867 35.0101 128.867 35.0101L153.33 35.0101L146 44.5L134.5 44.5L132 56.5L146 44.5L153.33 35.0101L170 35.0101Z" fill="white"/>
<path fill-rule="evenodd" clip-rule="evenodd" d="M110.202 66.9837L86.2294 66.9837C86.2294 66.9837 82.8936 67.1782 81.2188 66.2222C78.355 64.5875 78 62.4147 78 62.4147L78 41.0925C78 41.0925 78.0221 38.7663 79.072 36.9042C80.1454 35.0005 82.2936 35.0005 82.2936 35.0005L110.202 35.0005C110.202 35.0005 113.16 34.9418 114.853 36.1427C117 37.6657 117 39.5695 117 39.5695L117 62.0339C117 62.0339 117.001 63.9384 115.211 65.4607C113.421 66.9837 110.202 66.9837 110.202 66.9837ZM91.9527 58.2264L103.402 58.2264L103.402 43.7578L91.9527 43.7578L91.9527 58.2264Z" fill="white"/>
<path fill-rule="evenodd" clip-rule="evenodd" d="M78 101.995L78 71L109.272 71C109.272 71 112.952 71 115.454 74.9645C117.273 77.8477 117.273 84.3351 116.545 86.1372C116.321 86.6916 115.454 87.2184 115.454 87.2184C115.454 87.2184 116.446 87.5001 116.547 88.2997C116.911 91.1829 116.909 95.1474 115.09 98.3911C112.909 102.281 109.272 101.995 109.272 101.995L78 101.995ZM88.545 79.2894L88.545 82.8935L102.363 82.8935C102.363 82.8935 104.181 82.8935 104.181 81.0915C104.181 79.2894 102.363 79.2894 102.363 79.2894L88.545 79.2894ZM88.545 93.3454L88.545 89.3809L102.363 89.3809C102.363 89.3809 104.181 89.3809 104.181 91.183C104.181 92.985 102.363 93.3454 102.363 93.3454L88.545 93.3454Z" fill="white"/>
<path fill-rule="evenodd" clip-rule="evenodd" d="M75.0001 35.0074L75.0001 66.0027L43.7286 66.0027C37.584 66.0027 35.5 56.5026 35.5 50.0026C35.4999 43.6547 37.9796 34.5554 43.7286 35.0074L75.0001 35.0074ZM64.4551 43.6573L64.4551 57.0027L50.6374 57.0027C50.6374 57.0027 48.0001 56.5027 48.0001 50.5027C48.0001 44.5027 50.6374 43.6573 50.6374 43.6573L64.4551 43.6573Z" fill="white"/>
<path d="M170 195.5L101 195.5C101 195.5 100.506 222.306 59.5 252C30.4997 273 30.4997 334 30.4997 334L101 334C101 334 93 311.291 136 277C179 242.709 170 195.5 170 195.5Z" fill="white"/>
<path fill-rule="evenodd" clip-rule="evenodd" d="M164 397L164 334L101 334L101 397L164 397ZM121.5 356L145 356L145 379.5L121.5 379.5L121.5 356Z" fill="white"/>
<circle cx="73" cy="168" r="39" transform="rotate(90 73 168)" fill="white"/>
<circle cx="162.5" cy="59.5" r="6.5" transform="rotate(90 162.5 59.5)" fill="white"/>
<rect x="184" y="430" width="398" height="168" rx="16" transform="rotate(90 184 430)" fill="white"/>
<path d="M168.091 452.519L163 452.519L163 451.442L168.091 451.442L168.091 452.519ZM166.627 456.166C166.827 456.146 166.983 456.061 167.094 455.91C167.205 455.759 167.261 455.555 167.261 455.296C167.261 455.12 167.236 454.972 167.186 454.851C167.138 454.73 167.071 454.637 166.985 454.573C166.899 454.51 166.801 454.478 166.691 454.478C166.6 454.475 166.521 454.494 166.453 454.535C166.385 454.579 166.326 454.637 166.276 454.712C166.228 454.786 166.186 454.873 166.15 454.97C166.115 455.068 166.085 455.173 166.06 455.284L165.951 455.741C165.901 455.963 165.835 456.167 165.752 456.353C165.669 456.538 165.567 456.699 165.446 456.835C165.325 456.971 165.183 457.076 165.018 457.15C164.854 457.227 164.666 457.266 164.454 457.267C164.143 457.266 163.873 457.186 163.644 457.029C163.417 456.873 163.24 456.648 163.114 456.353C162.99 456.059 162.928 455.705 162.928 455.291C162.928 454.88 162.991 454.522 163.117 454.217C163.243 453.914 163.429 453.677 163.676 453.506C163.925 453.337 164.232 453.249 164.598 453.24L164.598 454.282C164.428 454.293 164.285 454.342 164.171 454.429C164.058 454.516 163.973 454.633 163.915 454.779C163.858 454.927 163.83 455.093 163.83 455.279C163.83 455.461 163.857 455.619 163.91 455.753C163.963 455.889 164.037 455.995 164.131 456.069C164.225 456.144 164.334 456.181 164.457 456.181C164.571 456.181 164.667 456.147 164.745 456.079C164.823 456.013 164.889 455.915 164.944 455.786C164.999 455.658 165.048 455.502 165.093 455.316L165.232 454.762C165.337 454.332 165.5 453.994 165.722 453.745C165.944 453.496 166.243 453.373 166.619 453.375C166.928 453.373 167.197 453.455 167.427 453.621C167.658 453.788 167.837 454.018 167.967 454.309C168.096 454.601 168.161 454.932 168.161 455.304C168.161 455.681 168.096 456.011 167.967 456.293C167.837 456.576 167.658 456.797 167.427 456.954C167.197 457.112 166.93 457.193 166.627 457.198L166.627 456.166ZM166.627 460.753C166.827 460.733 166.983 460.648 167.094 460.497C167.205 460.346 167.261 460.142 167.261 459.883C167.261 459.707 167.236 459.559 167.186 459.438C167.138 459.317 167.071 459.224 166.985 459.16C166.899 459.097 166.801 459.065 166.691 459.065C166.6 459.062 166.521 459.081 166.453 459.122C166.385 459.165 166.326 459.224 166.276 459.299C166.228 459.373 166.186 459.46 166.15 459.557C166.115 459.655 166.085 459.76 166.06 459.871L165.951 460.328C165.901 460.55 165.835 460.754 165.752 460.939C165.669 461.125 165.567 461.286 165.446 461.422C165.325 461.558 165.183 461.663 165.018 461.737C164.854 461.814 164.666 461.853 164.454 461.854C164.143 461.853 163.873 461.773 163.644 461.616C163.417 461.46 163.24 461.234 163.114 460.939C162.99 460.646 162.928 460.292 162.928 459.878C162.928 459.467 162.991 459.109 163.117 458.804C163.243 458.501 163.429 458.264 163.676 458.093C163.925 457.924 164.232 457.836 164.598 457.827L164.598 458.869C164.428 458.88 164.285 458.929 164.171 459.015C164.058 459.103 163.973 459.22 163.915 459.366C163.858 459.513 163.83 459.68 163.83 459.866C163.83 460.048 163.857 460.206 163.91 460.34C163.963 460.476 164.037 460.581 164.131 460.656C164.225 460.731 164.334 460.768 164.457 460.768C164.571 460.768 164.667 460.734 164.745 460.666C164.823 460.6 164.889 460.502 164.944 460.373C164.999 460.245 165.048 460.088 165.093 459.903L165.232 459.349C165.337 458.919 165.5 458.58 165.722 458.332C165.944 458.083 166.243 457.96 166.619 457.961C166.928 457.96 167.197 458.042 167.427 458.208C167.658 458.375 167.837 458.604 167.967 458.896C168.096 459.188 168.161 459.519 168.161 459.89C168.161 460.268 168.096 460.598 167.967 460.88C167.837 461.163 167.658 461.384 167.427 461.541C167.197 461.698 166.93 461.78 166.627 461.785L166.627 460.753ZM168.091 465.723L168.091 466.799L164.785 466.799C164.414 466.799 164.089 466.71 163.81 466.533C163.532 466.357 163.315 466.111 163.159 465.795C163.005 465.478 162.928 465.11 162.928 464.689C162.928 464.266 163.005 463.897 163.159 463.58C163.315 463.263 163.532 463.017 163.81 462.842C164.089 462.666 164.414 462.578 164.785 462.578L168.091 462.578L168.091 463.655L164.877 463.655C164.683 463.655 164.511 463.697 164.36 463.781C164.209 463.868 164.09 463.988 164.004 464.144C163.918 464.3 163.875 464.482 163.875 464.689C163.875 464.897 163.918 465.079 164.004 465.233C164.09 465.389 164.209 465.509 164.36 465.593C164.511 465.68 164.683 465.723 164.877 465.723L168.091 465.723ZM163 467.685L168.091 467.685L168.091 471.115L167.203 471.115L167.203 468.761L165.99 468.761L165.99 470.939L165.103 470.939L165.103 468.761L163.887 468.761L163.887 471.125L163 471.125L163 467.685ZM165.545 478.269C164.99 478.269 164.518 478.164 164.129 477.953C163.739 477.745 163.442 477.46 163.236 477.098C163.032 476.739 162.93 476.334 162.93 475.885C162.93 475.433 163.033 475.027 163.239 474.667C163.444 474.308 163.742 474.023 164.131 473.815C164.52 473.606 164.992 473.501 165.545 473.501C166.101 473.501 166.573 473.606 166.962 473.815C167.352 474.023 167.648 474.308 167.852 474.667C168.058 475.027 168.161 475.433 168.161 475.885C168.161 476.334 168.058 476.739 167.852 477.098C167.648 477.46 167.352 477.745 166.962 477.953C166.573 478.164 166.101 478.269 165.545 478.269ZM165.545 477.178C165.905 477.178 166.208 477.124 166.455 477.016C166.702 476.91 166.889 476.76 167.017 476.566C167.145 476.373 167.208 476.145 167.208 475.885C167.208 475.625 167.145 475.398 167.017 475.204C166.889 475.01 166.702 474.859 166.455 474.752C166.208 474.646 165.905 474.593 165.545 474.593C165.186 474.593 164.883 474.646 164.636 474.752C164.389 474.859 164.201 475.01 164.074 475.204C163.946 475.398 163.882 475.625 163.882 475.885C163.882 476.145 163.946 476.373 164.074 476.566C164.201 476.76 164.389 476.91 164.636 477.016C164.883 477.124 165.186 477.178 165.545 477.178ZM163 479.066L168.091 479.066L168.091 481.075C168.091 481.459 168.022 481.788 167.885 482.059C167.749 482.333 167.556 482.541 167.305 482.683C167.057 482.828 166.764 482.9 166.428 482.9C166.09 482.9 165.799 482.827 165.555 482.681C165.313 482.535 165.128 482.324 164.999 482.047C164.869 481.772 164.805 481.439 164.805 481.048L164.805 479.703L165.67 479.703L165.67 480.874C165.67 481.079 165.698 481.25 165.754 481.386C165.811 481.522 165.895 481.623 166.008 481.689C166.121 481.757 166.261 481.791 166.428 481.791C166.597 481.791 166.739 481.757 166.855 481.689C166.971 481.623 167.059 481.521 167.119 481.383C167.18 481.247 167.211 481.076 167.211 480.869L167.211 480.143L163 480.143L163 479.066ZM165.317 481.816L163 483.081L163 481.893L165.317 480.655L165.317 481.816ZM163 485.465L163 483.66L168.091 483.66L168.091 485.48C168.091 485.992 167.989 486.433 167.785 486.802C167.583 487.172 167.292 487.456 166.913 487.655C166.533 487.855 166.079 487.956 165.55 487.956C165.02 487.956 164.564 487.855 164.183 487.655C163.802 487.456 163.51 487.17 163.306 486.797C163.102 486.426 163 485.982 163 485.465ZM163.922 484.737L163.922 485.42C163.922 485.738 163.979 486.006 164.091 486.223C164.206 486.442 164.382 486.606 164.621 486.715C164.861 486.826 165.171 486.882 165.55 486.882C165.927 486.882 166.234 486.826 166.473 486.715C166.711 486.606 166.887 486.443 167 486.226C167.112 486.008 167.169 485.741 167.169 485.423L167.169 484.737L163.922 484.737ZM163 488.753L168.091 488.753L168.091 492.183L167.203 492.183L167.203 489.829L165.99 489.829L165.99 492.007L165.103 492.007L165.103 489.829L163.887 489.829L163.887 492.193L163 492.193L163 488.753ZM163 493.039L168.091 493.039L168.091 495.048C168.091 495.432 168.022 495.76 167.885 496.032C167.749 496.305 167.556 496.513 167.305 496.656C167.057 496.8 166.764 496.872 166.428 496.872C166.09 496.872 165.799 496.799 165.555 496.653C165.313 496.508 165.128 496.296 164.999 496.02C164.869 495.745 164.805 495.411 164.805 495.02L164.805 493.676L165.67 493.676L165.67 494.846C165.67 495.052 165.698 495.223 165.754 495.358C165.811 495.494 165.895 495.595 166.008 495.662C166.121 495.73 166.261 495.764 166.428 495.764C166.597 495.764 166.739 495.73 166.855 495.662C166.971 495.595 167.059 495.493 167.119 495.356C167.18 495.22 167.211 495.049 167.211 494.841L167.211 494.116L163 494.116L163 493.039ZM165.317 495.788L163 497.054L163 495.866L165.317 494.628L165.317 495.788Z" fill="black"/>
<path d="M156.091 456.701L151 456.701L151 455.771L154.204 453.556L154.204 453.519L151 453.519L151 452.442L156.091 452.442L156.091 453.387L152.889 455.585L152.889 455.629L156.091 455.629L156.091 456.701ZM153.545 462.268C152.99 462.268 152.518 462.163 152.129 461.953C151.739 461.744 151.442 461.459 151.236 461.097C151.032 460.738 150.93 460.333 150.93 459.884C150.93 459.432 151.033 459.026 151.239 458.666C151.444 458.307 151.742 458.022 152.131 457.814C152.52 457.605 152.992 457.5 153.545 457.5C154.101 457.5 154.573 457.605 154.962 457.814C155.352 458.022 155.648 458.307 155.852 458.666C156.058 459.026 156.161 459.432 156.161 459.884C156.161 460.333 156.058 460.738 155.852 461.097C155.648 461.459 155.352 461.744 154.962 461.953C154.573 462.163 154.101 462.268 153.545 462.268ZM153.545 461.177C153.905 461.177 154.208 461.123 154.455 461.015C154.702 460.909 154.889 460.759 155.017 460.565C155.145 460.372 155.208 460.145 155.208 459.884C155.208 459.624 155.145 459.397 155.017 459.203C154.889 459.009 154.702 458.859 154.455 458.751C154.208 458.645 153.905 458.592 153.545 458.592C153.186 458.592 152.883 458.645 152.636 458.751C152.389 458.859 152.201 459.009 152.074 459.203C151.946 459.397 151.882 459.624 151.882 459.884C151.882 460.145 151.946 460.372 152.074 460.565C152.201 460.759 152.389 460.909 152.636 461.015C152.883 461.123 153.186 461.177 153.545 461.177ZM151 471.166L156.091 471.166L156.091 474.597L155.203 474.597L155.203 472.242L153.99 472.242L153.99 474.42L153.103 474.42L153.103 472.242L151.887 472.242L151.887 474.606L151 474.606L151 471.166ZM150.93 477.304C150.93 476.933 150.994 476.602 151.122 476.312C151.251 476.024 151.428 475.796 151.654 475.629C151.881 475.463 152.143 475.378 152.439 475.373L152.439 476.456C152.315 476.463 152.206 476.504 152.111 476.578C152.018 476.655 151.946 476.756 151.895 476.882C151.844 477.008 151.818 477.149 151.818 477.307C151.818 477.471 151.847 477.616 151.905 477.742C151.963 477.868 152.043 477.966 152.146 478.037C152.249 478.109 152.367 478.144 152.501 478.144C152.637 478.144 152.757 478.106 152.862 478.03C152.968 477.955 153.051 477.848 153.11 477.707C153.17 477.568 153.2 477.402 153.2 477.21L153.2 476.735L153.99 476.735L153.99 477.21C153.99 477.372 154.019 477.515 154.075 477.64C154.131 477.766 154.209 477.863 154.309 477.933C154.41 478.003 154.527 478.037 154.662 478.037C154.789 478.037 154.901 478.007 154.997 477.945C155.095 477.886 155.171 477.801 155.226 477.692C155.281 477.584 155.308 477.458 155.308 477.314C155.308 477.168 155.281 477.035 155.228 476.914C155.177 476.793 155.103 476.696 155.007 476.623C154.911 476.55 154.798 476.511 154.669 476.506L154.669 475.475C154.962 475.48 155.221 475.563 155.445 475.726C155.668 475.888 155.843 476.107 155.969 476.382C156.097 476.659 156.161 476.971 156.161 477.319C156.161 477.67 156.097 477.978 155.969 478.241C155.841 478.505 155.669 478.709 155.452 478.855C155.237 479.003 154.995 479.076 154.726 479.074C154.441 479.076 154.203 478.987 154.013 478.808C153.822 478.631 153.701 478.4 153.65 478.115L153.61 478.115C153.562 478.489 153.432 478.774 153.22 478.97C153.009 479.167 152.746 479.265 152.429 479.263C152.139 479.265 151.882 479.181 151.656 479.012C151.431 478.845 151.254 478.613 151.124 478.318C150.995 478.023 150.93 477.685 150.93 477.304ZM153.966 482.426L153.125 482.426L153.125 480.104L153.966 480.104L153.966 482.426ZM156.161 485.16C156.161 485.422 156.117 485.674 156.029 485.916C155.941 486.159 155.801 486.376 155.609 486.567C155.416 486.759 155.161 486.911 154.843 487.022C154.527 487.134 154.138 487.192 153.677 487.193C153.245 487.193 152.859 487.144 152.519 487.047C152.181 486.95 151.893 486.812 151.656 486.631C151.419 486.451 151.239 486.233 151.114 485.978C150.992 485.723 150.93 485.437 150.93 485.123C150.93 484.783 150.996 484.483 151.127 484.223C151.259 483.963 151.439 483.753 151.666 483.594C151.895 483.436 152.152 483.341 152.437 483.308L152.437 484.369C152.251 484.411 152.107 484.498 152.004 484.63C151.903 484.763 151.853 484.927 151.853 485.123C151.853 485.454 151.997 485.706 152.285 485.878C152.575 486.051 152.972 486.138 153.476 486.139L153.476 486.104C153.327 486.028 153.198 485.926 153.091 485.796C152.984 485.667 152.902 485.519 152.844 485.351C152.786 485.186 152.757 485.009 152.757 484.822C152.757 484.522 152.828 484.254 152.969 484.019C153.11 483.784 153.304 483.598 153.55 483.462C153.797 483.326 154.079 483.258 154.396 483.258C154.737 483.257 155.041 483.335 155.308 483.494C155.575 483.653 155.783 483.876 155.934 484.161C156.087 484.447 156.162 484.78 156.161 485.16ZM155.315 485.167C155.315 485 155.276 484.851 155.196 484.72C155.116 484.591 155.01 484.488 154.875 484.412C154.741 484.337 154.591 484.301 154.425 484.302C154.258 484.302 154.107 484.339 153.973 484.412C153.84 484.486 153.734 484.587 153.655 484.715C153.577 484.844 153.538 484.992 153.538 485.157C153.538 485.282 153.561 485.397 153.608 485.503C153.654 485.609 153.718 485.701 153.799 485.779C153.882 485.858 153.977 485.921 154.085 485.965C154.193 486.01 154.307 486.032 154.428 486.032C154.589 486.031 154.736 485.993 154.87 485.918C155.005 485.843 155.112 485.741 155.194 485.61C155.275 485.479 155.315 485.331 155.315 485.167ZM156.091 490.154L151 490.154L151 489.078L155.069 489.078L155.069 489.048L154.338 487.882L155.293 487.882L156.091 489.142L156.091 490.154ZM151 491.364L151.776 491.364L153.453 493.176C153.603 493.33 153.737 493.459 153.856 493.564C153.975 493.67 154.092 493.75 154.207 493.805C154.323 493.86 154.448 493.887 154.582 493.887C154.731 493.887 154.86 493.853 154.967 493.785C155.077 493.717 155.16 493.624 155.218 493.507C155.278 493.389 155.308 493.256 155.308 493.106C155.308 492.951 155.276 492.815 155.213 492.699C155.15 492.583 155.06 492.493 154.942 492.43C154.825 492.367 154.685 492.336 154.522 492.336L154.522 491.314C154.855 491.314 155.145 491.39 155.39 491.54C155.635 491.691 155.825 491.902 155.959 492.174C156.093 492.446 156.161 492.759 156.161 493.114C156.161 493.478 156.096 493.796 155.967 494.066C155.839 494.338 155.662 494.549 155.435 494.7C155.208 494.851 154.947 494.926 154.654 494.926C154.462 494.926 154.272 494.888 154.085 494.812C153.898 494.737 153.69 494.604 153.461 494.411C153.234 494.219 152.961 493.948 152.643 493.599L151.915 492.855L151.88 492.855L151.88 494.993L151 494.993L151 491.364ZM150.93 497.655C150.93 497.284 150.994 496.953 151.122 496.663C151.251 496.375 151.428 496.147 151.654 495.979C151.881 495.814 152.143 495.728 152.439 495.723L152.439 496.807C152.315 496.814 152.206 496.854 152.111 496.929C152.018 497.005 151.946 497.106 151.895 497.232C151.844 497.358 151.818 497.5 151.818 497.657C151.818 497.821 151.847 497.966 151.905 498.092C151.963 498.218 152.043 498.317 152.146 498.388C152.249 498.459 152.367 498.495 152.501 498.495C152.637 498.495 152.757 498.457 152.862 498.381C152.968 498.306 153.051 498.198 153.11 498.057C153.17 497.918 153.2 497.753 153.2 497.56L153.2 497.085L153.99 497.085L153.99 497.56C153.99 497.723 154.019 497.866 154.075 497.99C154.131 498.116 154.209 498.214 154.309 498.284C154.41 498.353 154.527 498.388 154.662 498.388C154.789 498.388 154.901 498.357 154.997 498.296C155.095 498.236 155.171 498.152 155.226 498.043C155.281 497.935 155.308 497.809 155.308 497.665C155.308 497.519 155.281 497.385 155.228 497.264C155.177 497.143 155.103 497.047 155.007 496.974C154.911 496.901 154.798 496.862 154.669 496.857L154.669 495.825C154.962 495.83 155.221 495.914 155.445 496.076C155.668 496.239 155.843 496.457 155.969 496.733C156.097 497.009 156.161 497.322 156.161 497.67C156.161 498.021 156.097 498.328 155.969 498.592C155.841 498.855 155.669 499.06 155.452 499.206C155.237 499.353 154.995 499.426 154.726 499.425C154.441 499.426 154.203 499.338 154.013 499.159C153.822 498.981 153.701 498.75 153.65 498.465L153.61 498.465C153.562 498.84 153.432 499.125 153.22 499.32C153.009 499.517 152.746 499.615 152.429 499.614C152.139 499.615 151.882 499.532 151.656 499.362C151.431 499.195 151.254 498.964 151.124 498.669C150.995 498.374 150.93 498.036 150.93 497.655ZM151 501.983L151.639 501.983L155.203 504.523L155.203 501.978L156.091 501.978L156.091 505.875L155.452 505.875L151.887 503.332L151.887 505.88L151 505.88L151 501.983ZM151 506.651L151.639 506.651L155.203 509.192L155.203 506.646L156.091 506.646L156.091 510.544L155.452 510.544L151.887 508.001L151.887 510.549L151 510.549L151 506.651ZM151 511.32L151.639 511.32L155.203 513.861L155.203 511.315L156.091 511.315L156.091 515.213L155.452 515.213L151.887 512.67L151.887 515.218L151 515.218L151 511.32Z" fill="black"/>
<path d="M51.5 645.5C48.5743 642.574 47 635 47 635C47 635 45.9508 642.307 43.5 645.5C41.0521 648.69 35.5 650 35.5 650C35.5 650 41.4933 651.183 44 654C46.4247 656.725 47 664.5 47 664.5C47 664.5 48.5425 656.617 51 654C53.3911 651.454 58.5 650 58.5 650C58.5 650 54 648 51.5 645.5Z" fill="black"/>
<path d="M36 574.5L35 554L92 594C92 594 96.2999 599 94 605C90.9335 613 84.5 613 84.5 613L60.5 613L94 636L94 655.5L41 620C41 620 34.087 614 35 607C36.5 595.5 48.5 595.5 48.5 595.5L71 598L36 574.5Z" fill="black"/>
<path d="M93 565.5L59.5 544L92 544C92 544 95 543.5 95 541C95 538.5 93 537.5 93 537.5L79.5 527L41.5 528C41.5 528 35 528 35 540C35 548 40 550.5 40 550.5L93.5 586.5L93 565.5Z" fill="black"/>
<path fill-rule="evenodd" clip-rule="evenodd" d="M94.5 473.5L94 532.5L42 496C42 496 35.5833 492 35 484C34.2344 473.5 42.5 473.5 42.5 473.5L94.5 473.5ZM59.5 488.5L81.5 488.5L81.5 504L59.5 488.5Z" fill="black"/>
<rect x="95" y="450" width="18" height="60" transform="rotate(90 95 450)" fill="black"/>
<path d="M35.5 749L35.5 681L104.5 681C104.5 681 110.333 681 115 685C122 691 122 695.5 122 695.5C122 695.5 122 707.823 122 717C122 718.953 122 724 122 724C122 724 118.343 724 116 724C106.627 724 92 724 92 724C92 724 86.1 724 84 725.5C80 728.357 80 734 80 734C80 734 80 749.542 80 759.5C80 761.648 80 765 80 765L65.5 765L51 765C51 765 46 765 40.5 759.5C35.5 754.5 35.5 749 35.5 749Z" fill="black"/>
<path d="M145 767C132.85 767 123 757.15 123 745C123 744.032 123.063 743.078 123.184 742.143C124.324 733.351 130.654 726.189 139 723.828C140.907 723.289 142.92 723 145 723C157.15 723 167 732.85 167 745C167 757.15 157.15 767 145 767Z" fill="black"/>
<path d="M101 809C88.8497 809 79 799.15 79 787C79 786.133 79.0501 785.279 79.1475 784.438C80.1826 775.512 86.5605 768.215 95 765.828C96.9073 765.289 98.9199 765 101 765C113.15 765 123 774.85 123 787C123 799.15 113.15 809 101 809Z" fill="black"/>
<path d="M80 765L65.5 765C65.5 765 73.4429 767.345 76.5 771.5C78.9969 774.894 79.2378 780.989 79.1475 784.438C80.1826 775.512 86.5605 768.215 95 765.828C95 765.828 88.4223 766.451 85 764.5C82.6011 763.132 81.3678 761.899 80 759.5C80 761.648 80 765 80 765Z" fill="black"/>
<path d="M123.184 742.143C124.324 733.351 130.654 726.189 139 723.828C139 723.828 133.032 723.571 129 722C126.472 721.015 123.184 719.5 122 717C122 718.953 122 724 122 724C122 724 118.343 724 116 724C118.329 725.732 119.497 727.017 121 729.5C123.107 732.981 123.294 738.71 123.184 742.143Z" fill="black"/>
<rect x="16" y="1242" width="398" height="168" rx="16" transform="rotate(-90 16 1242)" fill="black"/>
<path fill-rule="evenodd" clip-rule="evenodd" d="M156 905.01L170 921.01C170 921.01 158.5 922.51 155 921.01C152.078 919.757 148 916.01 148 916.01C148 916.01 146.883 918.792 145.5 920.01C143.629 921.656 141 922.01 141 922.01L127 922.01C127 922.01 125 922.01 122.5 920.01C120 918.01 120 915.01 120 915.01L120 905.01L120 895.009C120 895.009 120 892.009 122.5 890.009C125 888.009 127 888.009 127 888.009L141 888.009C141 888.009 143.629 888.362 145.5 890.009C146.883 891.226 148 894.009 148 894.009C148 894.009 152.078 890.261 155 889.009C158.5 887.509 170 889.009 170 889.009L156 905.01ZM133.5 911.509L133.5 899.009L140.5 905.01L133.5 911.509Z" fill="white"/>
<path fill-rule="evenodd" clip-rule="evenodd" d="M27 890.019L53.9366 921.005L70.681 921.005C70.681 921.005 71.9952 921.147 73.8152 919.672C76 917.901 76 916.352 76 916.352L76 896.063C76 896.063 75.9993 893.112 74.1792 891.637C71.8876 889.779 68.133 890.019 68.133 890.019L44.6804 890.019L51.7526 898.935L63.7649 900.843L61.8557 911.699L50.7423 898.775L43.6701 890.019L27 890.019Z" fill="white"/>
<path fill-rule="evenodd" clip-rule="evenodd" d="M171 854.019L144.063 885.005L127.319 885.005C127.319 885.005 126.005 885.147 124.185 883.672C122 881.901 122 880.352 122 880.352L122 860.063C122 860.063 122.001 857.112 123.821 855.637C126.112 853.779 129.867 854.019 129.867 854.019L154.33 854.019L147 863.509L135.5 863.509L133 875.509L147 863.509L154.33 854.019L171 854.019Z" fill="white"/>
<path fill-rule="evenodd" clip-rule="evenodd" d="M111.202 885.993L87.2294 885.993C87.2294 885.993 83.8936 886.187 82.2188 885.231C79.355 883.596 79 881.423 79 881.423L79 860.101C79 860.101 79.0221 857.775 80.072 855.913C81.1454 854.009 83.2936 854.009 83.2936 854.009L111.202 854.009C111.202 854.009 114.16 853.951 115.853 855.152C118 856.675 118 858.578 118 858.578L118 881.043C118 881.043 118.001 882.947 116.211 884.47C114.421 885.993 111.202 885.993 111.202 885.993ZM92.9527 877.235L104.402 877.235L104.402 862.767L92.9527 862.767L92.9527 877.235Z" fill="white"/>
<path fill-rule="evenodd" clip-rule="evenodd" d="M79 921.004L79 890.009L110.272 890.009C110.272 890.009 113.952 890.009 116.454 893.973C118.273 896.857 118.273 903.344 117.545 905.146C117.321 905.7 116.454 906.227 116.454 906.227C116.454 906.227 117.446 906.509 117.547 907.308C117.911 910.192 117.909 914.156 116.09 917.4C113.909 921.29 110.272 921.004 110.272 921.004L79 921.004ZM89.545 898.298L89.545 901.902L103.363 901.902C103.363 901.902 105.181 901.902 105.181 900.1C105.181 898.298 103.363 898.298 103.363 898.298L89.545 898.298ZM89.545 912.354L89.545 908.39L103.363 908.39C103.363 908.39 105.181 908.39 105.181 910.192C105.181 911.994 103.363 912.354 103.363 912.354L89.545 912.354Z" fill="white"/>
<path fill-rule="evenodd" clip-rule="evenodd" d="M76.0001 854.016L76.0001 885.012L44.7286 885.012C38.584 885.012 36.5 875.511 36.5 869.011C36.4999 862.663 38.9796 853.564 44.7286 854.016L76.0001 854.016ZM65.4551 862.666L65.4551 876.012L51.6374 876.012C51.6374 876.012 49.0001 875.512 49.0001 869.512C49.0001 863.512 51.6374 862.666 51.6374 862.666L65.4551 862.666Z" fill="white"/>
<circle cx="163.5" cy="878.509" r="6.5" transform="rotate(90 163.5 878.509)" fill="white"/>
<path fill-rule="evenodd" clip-rule="evenodd" d="M36 1014.5C36 1050.12 64.8776 1079 100.5 1079C136.122 1079 165 1050.12 165 1014.5C165 978.878 136.122 950 100.5 950C64.8776 950 36 978.878 36 1014.5ZM81 1015C81 1026.05 89.9543 1035 101 1035C112.046 1035 121 1026.05 121 1015C121 1003.95 112.046 995 101 995C89.9543 995 81 1003.95 81 1015Z" fill="white"/>
<path d="M100.5 1019C98.0147 1019 96 1016.99 96 1014.5C96 1012.01 98.0147 1010 100.5 1010C102.985 1010 105 1012.01 105 1014.5C105 1016.99 102.985 1019 100.5 1019Z" fill="white"/>
<path d="M98.7627 1138.12L98.7626 1138.12L98.7624 1138.12L98.759 1138.11L98.7426 1138.08C98.7275 1138.05 98.7042 1138 98.6731 1137.94C98.6109 1137.82 98.5182 1137.64 98.3995 1137.42C98.1617 1136.97 97.8223 1136.35 97.4184 1135.66C96.5845 1134.24 95.5706 1132.68 94.6614 1131.69C93.7654 1130.72 92.323 1129.6 90.9945 1128.66C90.351 1128.2 89.7706 1127.82 89.3519 1127.55C89.1429 1127.41 88.9755 1127.31 88.8619 1127.24C88.8052 1127.2 88.762 1127.17 88.734 1127.16L88.7034 1127.14L88.6971 1127.13L88.6969 1127.13L88.6965 1127.13L88.6963 1127.13L88.6962 1127.13L85.6442 1125.27L88.4441 1123.04L88.4441 1123.04L88.4443 1123.04L88.4456 1123.04L88.4528 1123.04L88.4849 1123.01C88.514 1122.99 88.5579 1122.95 88.6153 1122.91C88.7302 1122.81 88.8985 1122.68 89.1083 1122.5C89.5285 1122.16 90.112 1121.67 90.7628 1121.1C92.0901 1119.94 93.6014 1118.54 94.6029 1117.37C95.4981 1116.33 96.5506 1114.82 97.4135 1113.5C97.8366 1112.86 98.1993 1112.28 98.4559 1111.87C98.584 1111.66 98.6852 1111.5 98.7537 1111.38C98.7746 1111.35 98.7924 1111.32 98.807 1111.3C98.8164 1111.28 98.8245 1111.27 98.8312 1111.26L98.8501 1111.22L98.8544 1111.22L98.8551 1111.22L98.8552 1111.22L98.8553 1111.22L100.852 1107.88L103.058 1111.08L103.058 1111.08L103.058 1111.08L103.058 1111.08L103.059 1111.08L103.065 1111.09L103.087 1111.12L103.176 1111.25C103.256 1111.36 103.372 1111.53 103.518 1111.74C103.812 1112.15 104.225 1112.73 104.704 1113.38C105.676 1114.69 106.864 1116.23 107.851 1117.32C108.915 1118.49 110.455 1119.92 111.777 1121.09C112.428 1121.66 113.01 1122.16 113.427 1122.52C113.636 1122.69 113.804 1122.83 113.918 1122.93C113.975 1122.98 114.019 1123.01 114.048 1123.04L114.081 1123.06L114.088 1123.07L114.09 1123.07L114.09 1123.07L114.09 1123.07L114.09 1123.07L116.753 1125.27L98.7627 1138.12ZM98.7627 1138.12L98.7628 1138.12L98.7629 1138.12L100.835 1142.27L103.163 1138.25L103.163 1138.25L103.163 1138.25L103.164 1138.25L103.168 1138.24L103.188 1138.21C103.205 1138.18 103.233 1138.13 103.269 1138.07C103.341 1137.95 103.449 1137.77 103.586 1137.55C103.86 1137.1 104.249 1136.48 104.708 1135.78C105.65 1134.36 106.794 1132.77 107.793 1131.74C108.745 1130.76 110.217 1129.62 111.542 1128.67C112.187 1128.21 112.766 1127.82 113.183 1127.54C113.391 1127.4 113.558 1127.29 113.671 1127.22C113.728 1127.18 113.771 1127.15 113.8 1127.14L113.831 1127.12L113.837 1127.11L113.838 1127.11L113.838 1127.11L113.838 1127.11L98.7627 1138.12ZM33.5 1124.5C33.5 1161.5 63.4969 1191.5 100.5 1191.5C137.503 1191.5 167.5 1161.5 167.5 1124.5C167.5 1087.5 137.503 1057.5 100.5 1057.5C63.4969 1057.5 33.5 1087.5 33.5 1124.5ZM101 1142.5C91.335 1142.5 83.5 1134.66 83.5 1125C83.5 1115.34 91.335 1107.5 101 1107.5C110.665 1107.5 118.5 1115.34 118.5 1125C118.5 1134.66 110.665 1142.5 101 1142.5Z" fill="white" stroke="black" stroke-width="5"/>
<path d="M77.2102 1223H74.6321V1215.73H77.2315C77.9631 1215.73 78.5928 1215.87 79.1207 1216.16C79.6487 1216.45 80.0547 1216.87 80.3388 1217.41C80.6252 1217.95 80.7685 1218.6 80.7685 1219.36C80.7685 1220.11 80.6252 1220.77 80.3388 1221.31C80.0547 1221.85 79.6463 1222.27 79.1136 1222.56C78.5833 1222.85 77.9489 1223 77.2102 1223ZM76.1697 1221.68H77.1463C77.6009 1221.68 77.9832 1221.6 78.2933 1221.44C78.6058 1221.28 78.8402 1221.03 78.9964 1220.68C79.1551 1220.34 79.2344 1219.9 79.2344 1219.36C79.2344 1218.82 79.1551 1218.38 78.9964 1218.04C78.8402 1217.7 78.607 1217.45 78.2969 1217.29C77.9867 1217.13 77.6044 1217.04 77.1499 1217.04H76.1697V1221.68ZM86.7299 1218.08C86.6802 1217.91 86.6104 1217.75 86.5204 1217.62C86.4305 1217.49 86.3204 1217.37 86.1902 1217.28C86.0623 1217.18 85.9155 1217.11 85.7498 1217.06C85.5865 1217.01 85.4054 1216.99 85.2065 1216.99C84.8348 1216.99 84.5081 1217.08 84.2264 1217.26C83.947 1217.45 83.7292 1217.72 83.573 1218.07C83.4167 1218.42 83.3386 1218.85 83.3386 1219.36C83.3386 1219.86 83.4155 1220.29 83.5694 1220.65C83.7233 1221 83.9411 1221.28 84.2228 1221.46C84.5046 1221.65 84.8372 1221.74 85.2207 1221.74C85.5687 1221.74 85.8658 1221.68 86.112 1221.55C86.3606 1221.43 86.55 1221.25 86.6802 1221.03C86.8128 1220.8 86.8791 1220.53 86.8791 1220.22L87.1916 1220.27H85.3166V1219.11H88.3599V1220.02C88.3599 1220.66 88.225 1221.21 87.9551 1221.67C87.6852 1222.13 87.3135 1222.48 86.84 1222.73C86.3665 1222.98 85.8244 1223.1 85.2136 1223.1C84.5318 1223.1 83.9328 1222.95 83.4167 1222.65C82.9006 1222.35 82.4982 1221.92 82.2093 1221.36C81.9229 1220.8 81.7797 1220.14 81.7797 1219.37C81.7797 1218.78 81.8649 1218.26 82.0353 1217.79C82.2082 1217.33 82.4496 1216.94 82.7598 1216.62C83.0699 1216.29 83.4309 1216.05 83.8429 1215.88C84.2548 1215.71 84.7011 1215.63 85.1816 1215.63C85.5936 1215.63 85.9771 1215.69 86.3322 1215.81C86.6873 1215.93 87.0022 1216.1 87.2768 1216.31C87.5538 1216.53 87.7799 1216.79 87.9551 1217.09C88.1303 1217.39 88.2427 1217.72 88.2924 1218.08H86.7299ZM94.4075 1223H91.8294V1215.73H94.4288C95.1603 1215.73 95.7901 1215.87 96.318 1216.16C96.8459 1216.45 97.252 1216.87 97.536 1217.41C97.8225 1217.95 97.9657 1218.6 97.9657 1219.36C97.9657 1220.11 97.8225 1220.77 97.536 1221.31C97.252 1221.85 96.8436 1222.27 96.3109 1222.56C95.7806 1222.85 95.1461 1223 94.4075 1223ZM93.367 1221.68H94.3436C94.7981 1221.68 95.1805 1221.6 95.4906 1221.44C95.8031 1221.28 96.0375 1221.03 96.1937 1220.68C96.3523 1220.34 96.4316 1219.9 96.4316 1219.36C96.4316 1218.82 96.3523 1218.38 96.1937 1218.04C96.0375 1217.7 95.8043 1217.45 95.4941 1217.29C95.184 1217.13 94.8017 1217.04 94.3471 1217.04H93.367V1221.68ZM100.009 1215.73L101.766 1221.25H101.834L103.595 1215.73H105.3L102.793 1223H100.811L98.3004 1215.73H100.009ZM112.258 1215.73V1223H110.93L107.766 1218.42H107.713V1223H106.175V1215.73H107.525L110.664 1220.3H110.728V1215.73H112.258ZM116.899 1218.76V1219.96H113.582V1218.76H116.899ZM119.47 1223H117.822L120.333 1215.73H122.314L124.821 1223H123.173L121.352 1217.39H121.295L119.47 1223ZM119.367 1220.14H123.259V1221.34H119.367V1220.14ZM125.544 1221.72V1220.51L128.58 1215.73H129.624V1217.4H129.006L127.092 1220.43V1220.49H131.407V1221.72H125.544ZM129.035 1223V1221.35L129.063 1220.82V1215.73H130.505V1223H129.035Z" fill="white"/>
<path d="M80.3878 1235V1234.36L82.9283 1230.8H80.3828V1229.91H84.2805V1230.55L81.7376 1234.11H84.2855V1235H80.3878ZM86.9633 1235.07C86.5921 1235.07 86.2615 1235.01 85.9715 1234.88C85.6831 1234.75 85.4553 1234.57 85.2879 1234.35C85.1222 1234.12 85.0368 1233.86 85.0319 1233.56H86.1157C86.1223 1233.69 86.1629 1233.79 86.2375 1233.89C86.3137 1233.98 86.4148 1234.05 86.5407 1234.11C86.6667 1234.16 86.8084 1234.18 86.9658 1234.18C87.1299 1234.18 87.2749 1234.15 87.4008 1234.1C87.5268 1234.04 87.6254 1233.96 87.6966 1233.85C87.7679 1233.75 87.8035 1233.63 87.8035 1233.5C87.8035 1233.36 87.7654 1233.24 87.6892 1233.14C87.6146 1233.03 87.5069 1232.95 87.366 1232.89C87.2268 1232.83 87.0611 1232.8 86.8689 1232.8H86.3941V1232.01H86.8689C87.0313 1232.01 87.1746 1231.98 87.2989 1231.93C87.4249 1231.87 87.5226 1231.79 87.5922 1231.69C87.6618 1231.59 87.6966 1231.47 87.6966 1231.34C87.6966 1231.21 87.666 1231.1 87.6047 1231C87.545 1230.91 87.4605 1230.83 87.3511 1230.77C87.2434 1230.72 87.1175 1230.69 86.9733 1230.69C86.8274 1230.69 86.694 1230.72 86.5731 1230.77C86.4521 1230.82 86.3551 1230.9 86.2822 1230.99C86.2093 1231.09 86.1704 1231.2 86.1654 1231.33H85.1338C85.1388 1231.04 85.2224 1230.78 85.3849 1230.56C85.5473 1230.33 85.766 1230.16 86.0411 1230.03C86.3179 1229.9 86.6302 1229.84 86.9782 1229.84C87.3296 1229.84 87.637 1229.9 87.9005 1230.03C88.164 1230.16 88.3686 1230.33 88.5145 1230.55C88.662 1230.76 88.7349 1231.01 88.7332 1231.27C88.7349 1231.56 88.6462 1231.8 88.4672 1231.99C88.2899 1232.18 88.0587 1232.3 87.7737 1232.35V1232.39C88.1482 1232.44 88.4333 1232.57 88.6288 1232.78C88.826 1232.99 88.9238 1233.25 88.9221 1233.57C88.9238 1233.86 88.8401 1234.12 88.6711 1234.34C88.5037 1234.57 88.2725 1234.75 87.9775 1234.88C87.6826 1235 87.3445 1235.07 86.9633 1235.07ZM89.7257 1235V1229.91H91.7342C92.1187 1229.91 92.4468 1229.98 92.7186 1230.12C92.992 1230.25 93.2 1230.44 93.3425 1230.69C93.4867 1230.94 93.5588 1231.24 93.5588 1231.57C93.5588 1231.91 93.4859 1232.2 93.34 1232.44C93.1942 1232.69 92.9829 1232.87 92.7061 1233C92.431 1233.13 92.098 1233.2 91.7069 1233.2H90.362V1232.33H91.5328C91.7383 1232.33 91.909 1232.3 92.0449 1232.25C92.1808 1232.19 92.2819 1232.1 92.3482 1231.99C92.4161 1231.88 92.4501 1231.74 92.4501 1231.57C92.4501 1231.4 92.4161 1231.26 92.3482 1231.14C92.2819 1231.03 92.18 1230.94 92.0424 1230.88C91.9065 1230.82 91.735 1230.79 91.5279 1230.79H90.802V1235H89.7257ZM92.475 1232.68L93.7402 1235H92.552L91.3141 1232.68H92.475ZM96.2857 1235.11C95.8581 1235.11 95.4902 1235 95.182 1234.8C94.8754 1234.59 94.6393 1234.28 94.4735 1233.89C94.3095 1233.49 94.2283 1233.02 94.2299 1232.46C94.2299 1231.9 94.312 1231.43 94.476 1231.04C94.6417 1230.65 94.8779 1230.35 95.1845 1230.15C95.4927 1229.94 95.8598 1229.84 96.2857 1229.84C96.7116 1229.84 97.0778 1229.94 97.3844 1230.15C97.6926 1230.35 97.9296 1230.65 98.0953 1231.04C98.2611 1231.43 98.3431 1231.9 98.3414 1232.46C98.3414 1233.02 98.2586 1233.5 98.0929 1233.89C97.9288 1234.29 97.6935 1234.59 97.3869 1234.8C97.0803 1235.01 96.7132 1235.11 96.2857 1235.11ZM96.2857 1234.22C96.5774 1234.22 96.8102 1234.07 96.9842 1233.78C97.1582 1233.49 97.2444 1233.05 97.2427 1232.46C97.2427 1232.07 97.2029 1231.75 97.1234 1231.5C97.0455 1231.24 96.9345 1231.05 96.7903 1230.92C96.6478 1230.79 96.4796 1230.72 96.2857 1230.72C95.9957 1230.72 95.7637 1230.87 95.5897 1231.16C95.4157 1231.45 95.3278 1231.88 95.3262 1232.46C95.3262 1232.85 95.3651 1233.18 95.443 1233.44C95.5225 1233.7 95.6344 1233.89 95.7786 1234.03C95.9228 1234.15 96.0918 1234.22 96.2857 1234.22ZM100.148 1229.91L101.175 1231.64H101.214L102.246 1229.91H103.462L101.908 1232.45L103.496 1235H102.258L101.214 1233.26H101.175L100.131 1235H98.8976L100.491 1232.45L98.9275 1229.91H100.148ZM112.189 1235V1234.36L114.729 1230.8H112.184V1229.91H116.081V1230.55L113.538 1234.11H116.086V1235H112.189ZM116.858 1235V1234.36L119.398 1230.8H116.853V1229.91H120.75V1230.55L118.207 1234.11H120.755V1235H116.858ZM121.526 1235V1234.36L124.067 1230.8H121.521V1229.91H125.419V1230.55L122.876 1234.11H125.424V1235H121.526Z" fill="white"/>
<rect x="184" y="1258" width="398" height="168" rx="16" transform="rotate(90 184 1258)" fill="white"/>
<path fill-rule="evenodd" clip-rule="evenodd" d="M76.4999 1588L34.4999 1625L34.4999 1568.5C34.4999 1568.5 33.9817 1562.65 36.4999 1559.5C38.4999 1557 42.4999 1557 42.4999 1557L69.9999 1557C69.9999 1557 72.0991 1557 74.4999 1560C76.4999 1562.5 76.4999 1565 76.4999 1565L76.4999 1588ZM45.9999 1593.5L66.9999 1574.5L45.9999 1574.5L45.9999 1593.5Z" fill="black"/>
<path fill-rule="evenodd" clip-rule="evenodd" d="M76.5001 1505.5L76.5001 1539C76.5001 1539 76.7555 1543.66 75.5001 1546C73.3534 1550 70.5001 1550.5 70.5001 1550.5L42.5001 1550.5C42.5001 1550.5 39.4454 1550.47 37.0001 1549C34.5001 1547.5 34.5001 1544.5 34.5001 1544.5L34.5001 1505.5C34.5001 1505.5 34.4231 1501.36 36.0001 1499C38.0001 1496 40.5001 1496 40.5001 1496L70.0001 1496C70.0001 1496 72.5011 1496 74.5001 1498.5C76.5001 1501 76.5001 1505.5 76.5001 1505.5ZM65.0001 1531L65.0001 1515L46.0001 1515L46.0001 1531L65.0001 1531Z" fill="black"/>
<path fill-rule="evenodd" clip-rule="evenodd" d="M138.982 1364.2C138.982 1364.2 163.753 1385.68 162.982 1403.71C162.336 1418.84 156.699 1429.83 143.482 1437.21C129.476 1445.03 110.482 1440.71 102.482 1434.21L31.9824 1364.21L31.9824 1364.2L102.482 1294.2C110.482 1287.7 129.476 1283.38 143.482 1291.2C156.699 1298.58 162.336 1309.58 162.982 1324.7C163.753 1342.74 138.982 1364.2 138.982 1364.2ZM105.5 1354.5C100.252 1349.01 96.5 1337 96.5 1337C96.5 1337 92.3618 1348.87 87 1354.5C82.1896 1359.55 72 1364.2 72 1364.2C72 1364.2 83.1356 1370.01 88 1375.5C92.932 1381.06 96.5 1392 96.5 1392C96.5 1392 101.441 1380.07 107 1374.5C112.839 1368.65 125 1364.2 125 1364.2C125 1364.2 111.497 1360.78 105.5 1354.5Z" fill="black"/>
<path fill-rule="evenodd" clip-rule="evenodd" d="M77.5001 1490.01L34.5001 1490.01L34.5001 1447.01C34.5001 1447.01 34.5001 1441.94 40 1438.5C44 1436 53 1436 55.5 1437C56.2691 1437.31 57 1438.5 57 1438.5C57 1438.5 57.3908 1437.14 58.5 1437C62.5 1436.5 68 1436.5 72.5 1439C77.8969 1442 77.5001 1447.01 77.5001 1447.01L77.5001 1490.01ZM46.0001 1475.51L51.0001 1475.51L51.0001 1456.51C51.0001 1456.51 51.0001 1454.01 48.5001 1454.01C46.0001 1454.01 46.0001 1456.51 46.0001 1456.51L46.0001 1475.51ZM65.5001 1475.51L60.0001 1475.51L60.0001 1456.51C60.0001 1456.51 60.0001 1454.01 62.5001 1454.01C65.0001 1454.01 65.5001 1456.51 65.5001 1456.51L65.5001 1475.51Z" fill="black"/>
<circle cx="70.5" cy="1616.5" r="8.5" transform="rotate(90 70.5 1616.5)" fill="black"/>
<path d="M65.5001 1620C64.5684 1618.6 69.0001 1616 69.0001 1616C69.0001 1616 65.0001 1615.5 65.0001 1614.5C65.0001 1613.45 69.0001 1613 69.0001 1613C69.0001 1613 72.2423 1612.27 74.0001 1613.5C75.574 1614.61 75.9695 1616.14 75.5001 1618C75.0607 1619.75 73.8003 1620.99 72.0001 1621C70.9486 1621.01 70.0001 1620 70.0001 1619C69.5001 1619 66.5001 1621.5 65.5001 1620Z" fill="white"/>
<path d="M69.0001 1616L69.0508 1616.09C69.0877 1616.07 69.1067 1616.02 69.0981 1615.98C69.0894 1615.94 69.055 1615.91 69.0125 1615.9L69.0001 1616ZM65.5001 1620L65.5833 1619.95L65.5001 1620ZM72.0001 1621L71.9995 1620.9H71.9995L72.0001 1621ZM75.5001 1618L75.4031 1617.98L75.5001 1618ZM74.0001 1613.5L74.0576 1613.42L74.0001 1613.5ZM69.0001 1613L69.0113 1613.1L69.0222 1613.1L69.0001 1613ZM65.0001 1614.5L65.1001 1614.5L65.0001 1614.5ZM69.0001 1616C68.9495 1615.91 68.9495 1615.91 68.9494 1615.91C68.9494 1615.91 68.9493 1615.91 68.9492 1615.91C68.9491 1615.91 68.9489 1615.91 68.9486 1615.91C68.948 1615.92 68.9472 1615.92 68.9461 1615.92C68.9439 1615.92 68.9406 1615.92 68.9363 1615.92C68.9278 1615.93 68.9153 1615.93 68.899 1615.94C68.8664 1615.96 68.8189 1615.99 68.7589 1616.03C68.6388 1616.1 68.4684 1616.21 68.267 1616.35C67.8643 1616.61 67.3363 1616.98 66.8367 1617.4C66.3386 1617.81 65.8627 1618.28 65.5699 1618.73C65.2796 1619.18 65.1494 1619.65 65.4169 1620.06L65.5833 1619.95C65.385 1619.65 65.4594 1619.27 65.7379 1618.84C66.0141 1618.41 66.4714 1617.96 66.9647 1617.55C67.4567 1617.14 67.9783 1616.78 68.3775 1616.51C68.5769 1616.38 68.7455 1616.27 68.8642 1616.2C68.9235 1616.16 68.9702 1616.13 69.0022 1616.12C69.0181 1616.11 69.0303 1616.1 69.0385 1616.09C69.0426 1616.09 69.0457 1616.09 69.0478 1616.09C69.0488 1616.09 69.0496 1616.09 69.0501 1616.09C69.0503 1616.09 69.0505 1616.09 69.0506 1616.09C69.0507 1616.09 69.0507 1616.09 69.0507 1616.09C69.0508 1616.09 69.0508 1616.09 69.0001 1616ZM65.4169 1620.06C65.6918 1620.47 66.1059 1620.6 66.5603 1620.58C67.0094 1620.55 67.5079 1620.37 67.9799 1620.15C68.4534 1619.93 68.9106 1619.66 69.2765 1619.45C69.4605 1619.35 69.62 1619.26 69.7487 1619.19C69.813 1619.16 69.8675 1619.14 69.9122 1619.12C69.9587 1619.1 69.9865 1619.1 70.0001 1619.1L70.0001 1618.9C69.9512 1618.9 69.8971 1618.91 69.8442 1618.93C69.7895 1618.95 69.7273 1618.98 69.6598 1619.01C69.5248 1619.08 69.36 1619.18 69.1769 1619.28C68.8084 1619.49 68.3594 1619.76 67.8953 1619.97C67.4299 1620.19 66.9595 1620.35 66.5494 1620.38C66.1443 1620.4 65.8084 1620.28 65.5833 1619.95L65.4169 1620.06ZM70.0626 1619.08C70.5412 1618.7 71.0321 1618.45 71.4036 1618.3C71.5892 1618.23 71.7445 1618.17 71.8531 1618.14C71.9073 1618.13 71.9498 1618.12 71.9785 1618.11C71.9928 1618.11 72.0037 1618.1 72.0109 1618.1C72.0145 1618.1 72.0171 1618.1 72.0188 1618.1C72.0196 1618.1 72.0202 1618.1 72.0206 1618.1C72.0208 1618.1 72.0209 1618.1 72.0209 1618.1C72.021 1618.1 72.021 1618.1 72.021 1618.1C72.021 1618.1 72.021 1618.1 72.021 1618.1C72.0209 1618.1 72.0209 1618.1 72.0001 1618C71.9792 1617.9 71.9792 1617.9 71.9792 1617.9C71.9791 1617.9 71.9791 1617.9 71.9791 1617.9C71.979 1617.9 71.9789 1617.9 71.9788 1617.9C71.9786 1617.9 71.9784 1617.9 71.9781 1617.9C71.9774 1617.9 71.9766 1617.9 71.9754 1617.9C71.9732 1617.9 71.97 1617.9 71.9658 1617.91C71.9575 1617.91 71.9454 1617.91 71.9299 1617.91C71.8988 1617.92 71.8537 1617.93 71.7967 1617.95C71.6828 1617.98 71.5212 1618.04 71.3289 1618.11C70.9445 1618.27 70.4353 1618.52 69.9377 1618.92L70.0626 1619.08ZM69.9001 1619C69.9001 1619.53 70.1511 1620.06 70.5344 1620.45C70.918 1620.84 71.4428 1621.1 72.0007 1621.1L71.9995 1620.9C71.5059 1620.9 71.0307 1620.67 70.6772 1620.31C70.3234 1619.95 70.1001 1619.47 70.1001 1619L69.9001 1619ZM72.0007 1621.1C73.8566 1621.09 75.1493 1619.8 75.5971 1618.02L75.4031 1617.98C74.9722 1619.69 73.744 1620.89 71.9995 1620.9L72.0007 1621.1ZM75.5971 1618.02C75.8348 1617.08 75.8557 1616.21 75.6117 1615.44C75.3673 1614.66 74.8599 1613.98 74.0576 1613.42L73.9427 1613.58C74.7142 1614.13 75.1915 1614.77 75.4209 1615.5C75.6508 1616.23 75.6347 1617.06 75.4031 1617.98L75.5971 1618.02ZM74.0576 1613.42C73.151 1612.78 71.873 1612.66 70.8381 1612.69C70.318 1612.7 69.8537 1612.76 69.5194 1612.81C69.3522 1612.83 69.2173 1612.86 69.1241 1612.87C69.0774 1612.88 69.0412 1612.89 69.0164 1612.89C69.0041 1612.9 68.9946 1612.9 68.9882 1612.9C68.985 1612.9 68.9825 1612.9 68.9808 1612.9C68.98 1612.9 68.9793 1612.9 68.9788 1612.9C68.9786 1612.9 68.9784 1612.9 68.9783 1612.9C68.9782 1612.9 68.9782 1612.9 68.9782 1612.9C68.9781 1612.9 68.9781 1612.9 69.0001 1613C69.0222 1613.1 69.0222 1613.1 69.0222 1613.1C69.0222 1613.1 69.0222 1613.1 69.0222 1613.1C69.0223 1613.1 69.0224 1613.1 69.0226 1613.1C69.0229 1613.1 69.0234 1613.1 69.0242 1613.1C69.0256 1613.1 69.0278 1613.1 69.0308 1613.1C69.0367 1613.09 69.0457 1613.09 69.0575 1613.09C69.0811 1613.09 69.1162 1613.08 69.1617 1613.07C69.2526 1613.05 69.3847 1613.03 69.5489 1613C69.8775 1612.95 70.3336 1612.9 70.8437 1612.89C71.8694 1612.86 73.0914 1612.99 73.9427 1613.58L74.0576 1613.42ZM69.0001 1613C68.989 1612.9 68.9889 1612.9 68.9889 1612.9C68.9889 1612.9 68.9888 1612.9 68.9887 1612.9C68.9886 1612.9 68.9884 1612.9 68.9881 1612.9C68.9876 1612.9 68.9869 1612.9 68.9859 1612.9C68.9839 1612.9 68.9809 1612.9 68.9771 1612.9C68.9694 1612.9 68.958 1612.9 68.9432 1612.91C68.9136 1612.91 68.8703 1612.92 68.8153 1612.92C68.7052 1612.94 68.5481 1612.96 68.3597 1612.99C67.9831 1613.05 67.4801 1613.14 66.9764 1613.26C66.4741 1613.38 65.9652 1613.54 65.5799 1613.73C65.3874 1613.83 65.2203 1613.94 65.1002 1614.06C64.9795 1614.19 64.9001 1614.34 64.9001 1614.5L65.1001 1614.5C65.1001 1614.4 65.1458 1614.31 65.2438 1614.2C65.3424 1614.1 65.4878 1614 65.6703 1613.91C66.035 1613.73 66.5262 1613.57 67.0238 1613.45C67.5201 1613.33 68.0172 1613.24 68.3905 1613.19C68.5771 1613.16 68.7326 1613.13 68.8412 1613.12C68.8956 1613.11 68.9382 1613.11 68.9672 1613.1C68.9817 1613.1 68.9928 1613.1 69.0002 1613.1C69.0039 1613.1 69.0067 1613.1 69.0086 1613.1C69.0095 1613.1 69.0102 1613.1 69.0107 1613.1C69.0109 1613.1 69.011 1613.1 69.0111 1613.1C69.0112 1613.1 69.0112 1613.1 69.0113 1613.1C69.0113 1613.1 69.0113 1613.1 69.0001 1613ZM64.9001 1614.5C64.9001 1614.66 64.981 1614.8 65.1013 1614.92C65.2214 1615.04 65.3882 1615.15 65.5804 1615.25C65.9653 1615.44 66.4737 1615.6 66.9759 1615.72C67.4793 1615.85 67.9822 1615.94 68.3587 1616.01C68.547 1616.04 68.7041 1616.06 68.8141 1616.08C68.8691 1616.08 68.9124 1616.09 68.942 1616.09C68.9568 1616.1 68.9681 1616.1 68.9758 1616.1C68.9797 1616.1 68.9826 1616.1 68.9846 1616.1C68.9856 1616.1 68.9864 1616.1 68.9869 1616.1C68.9871 1616.1 68.9873 1616.1 68.9875 1616.1C68.9875 1616.1 68.9876 1616.1 68.9876 1616.1C68.9877 1616.1 68.9877 1616.1 69.0001 1616C69.0125 1615.9 69.0125 1615.9 69.0125 1615.9C69.0125 1615.9 69.0125 1615.9 69.0124 1615.9C69.0123 1615.9 69.0121 1615.9 69.0119 1615.9C69.0115 1615.9 69.0108 1615.9 69.0098 1615.9C69.008 1615.9 69.0052 1615.9 69.0015 1615.9C68.994 1615.9 68.9829 1615.9 68.9684 1615.9C68.9394 1615.89 68.8968 1615.89 68.8424 1615.88C68.7337 1615.86 68.5782 1615.84 68.3916 1615.81C68.0181 1615.75 67.5209 1615.65 67.0244 1615.53C66.5266 1615.4 66.035 1615.25 65.6698 1615.07C65.487 1614.98 65.3414 1614.88 65.2427 1614.78C65.1442 1614.68 65.1001 1614.59 65.1001 1614.5L64.9001 1614.5Z" fill="black"/>
<path d="M149.182 1623.63L155 1623.63L155 1624.69L151.338 1627.22L151.338 1627.26L155 1627.26L155 1628.49L149.182 1628.49L149.182 1627.41L152.841 1624.9L152.841 1624.85L149.182 1624.85L149.182 1623.63ZM152.091 1617.26C152.725 1617.26 153.265 1617.39 153.71 1617.63C154.155 1617.86 154.495 1618.19 154.73 1618.6C154.963 1619.01 155.08 1619.48 155.08 1619.99C155.08 1620.51 154.962 1620.97 154.727 1621.38C154.492 1621.79 154.152 1622.12 153.707 1622.36C153.262 1622.59 152.723 1622.71 152.091 1622.71C151.456 1622.71 150.917 1622.59 150.472 1622.36C150.027 1622.12 149.688 1621.79 149.455 1621.38C149.22 1620.97 149.102 1620.51 149.102 1619.99C149.102 1619.48 149.22 1619.01 149.455 1618.6C149.688 1618.19 150.027 1617.86 150.472 1617.63C150.917 1617.39 151.456 1617.26 152.091 1617.26ZM152.091 1618.51C151.68 1618.51 151.333 1618.57 151.051 1618.7C150.769 1618.82 150.555 1618.99 150.409 1619.21C150.263 1619.43 150.19 1619.69 150.19 1619.99C150.19 1620.29 150.263 1620.55 150.409 1620.77C150.555 1620.99 150.769 1621.16 151.051 1621.28C151.333 1621.41 151.68 1621.47 152.091 1621.47C152.502 1621.47 152.848 1621.41 153.131 1621.28C153.413 1621.16 153.627 1620.99 153.773 1620.77C153.919 1620.55 153.991 1620.29 153.991 1619.99C153.991 1619.69 153.919 1619.43 153.773 1619.21C153.627 1618.99 153.413 1618.82 153.131 1618.7C152.848 1618.57 152.502 1618.51 152.091 1618.51ZM155 1607.94L155 1609.26L149.182 1607.25L149.182 1605.67L155 1603.66L155 1604.98L150.511 1606.44L150.511 1606.48L155 1607.94ZM152.713 1608.03L152.713 1604.91L153.673 1604.91L153.673 1608.03L152.713 1608.03ZM155.08 1600.85C155.08 1601.27 155.007 1601.65 154.861 1601.98C154.713 1602.31 154.51 1602.57 154.253 1602.76C153.993 1602.95 153.694 1603.05 153.355 1603.05L153.355 1601.82C153.497 1601.81 153.622 1601.76 153.73 1601.68C153.836 1601.59 153.919 1601.47 153.977 1601.33C154.036 1601.19 154.065 1601.02 154.065 1600.84C154.065 1600.66 154.032 1600.49 153.966 1600.35C153.9 1600.2 153.808 1600.09 153.69 1600.01C153.573 1599.93 153.438 1599.89 153.284 1599.89C153.129 1599.89 152.991 1599.93 152.872 1600.02C152.751 1600.1 152.656 1600.23 152.588 1600.39C152.52 1600.55 152.486 1600.73 152.486 1600.95L152.486 1601.5L151.582 1601.5L151.582 1600.95C151.582 1600.77 151.55 1600.61 151.486 1600.46C151.421 1600.32 151.332 1600.21 151.219 1600.13C151.103 1600.05 150.969 1600.01 150.815 1600.01C150.67 1600.01 150.542 1600.04 150.432 1600.11C150.32 1600.18 150.233 1600.28 150.17 1600.4C150.108 1600.53 150.077 1600.67 150.077 1600.84C150.077 1601 150.107 1601.15 150.168 1601.29C150.226 1601.43 150.311 1601.54 150.42 1601.63C150.53 1601.71 150.659 1601.75 150.807 1601.76L150.807 1602.94C150.472 1602.93 150.176 1602.84 149.92 1602.65C149.665 1602.46 149.465 1602.21 149.321 1601.9C149.175 1601.58 149.102 1601.23 149.102 1600.83C149.102 1600.43 149.175 1600.08 149.321 1599.78C149.467 1599.47 149.664 1599.24 149.912 1599.07C150.158 1598.91 150.435 1598.82 150.741 1598.82C151.067 1598.82 151.339 1598.92 151.557 1599.13C151.775 1599.33 151.913 1599.59 151.972 1599.92L152.017 1599.92C152.072 1599.49 152.221 1599.17 152.463 1598.94C152.704 1598.72 153.005 1598.61 153.366 1598.61C153.698 1598.61 153.992 1598.7 154.25 1598.89C154.508 1599.09 154.71 1599.35 154.858 1599.69C155.006 1600.02 155.08 1600.41 155.08 1600.85ZM155 1595.87L154.114 1595.87L152.196 1593.8C152.026 1593.63 151.872 1593.48 151.736 1593.36C151.599 1593.24 151.466 1593.14 151.335 1593.08C151.203 1593.02 151.06 1592.99 150.906 1592.99C150.736 1592.99 150.589 1593.03 150.466 1593.11C150.341 1593.18 150.245 1593.29 150.179 1593.42C150.111 1593.56 150.077 1593.71 150.077 1593.88C150.077 1594.06 150.113 1594.21 150.185 1594.35C150.257 1594.48 150.36 1594.58 150.494 1594.65C150.629 1594.73 150.789 1594.76 150.974 1594.76L150.974 1595.93C150.594 1595.93 150.263 1595.84 149.983 1595.67C149.703 1595.5 149.486 1595.26 149.332 1594.95C149.179 1594.64 149.102 1594.28 149.102 1593.87C149.102 1593.46 149.176 1593.09 149.324 1592.78C149.47 1592.47 149.672 1592.23 149.932 1592.06C150.191 1591.89 150.489 1591.8 150.824 1591.8C151.044 1591.8 151.26 1591.84 151.474 1591.93C151.688 1592.02 151.926 1592.17 152.188 1592.39C152.447 1592.61 152.759 1592.92 153.122 1593.32L153.955 1594.17L153.994 1594.17L153.994 1591.72L155 1591.72L155 1595.87ZM155 1590.8L149.182 1590.8L149.182 1588.47C149.182 1588.04 149.245 1587.68 149.372 1587.4C149.499 1587.11 149.675 1586.9 149.901 1586.75C150.124 1586.61 150.382 1586.54 150.673 1586.54C150.901 1586.54 151.1 1586.58 151.273 1586.67C151.443 1586.76 151.583 1586.89 151.693 1587.05C151.801 1587.21 151.878 1587.39 151.923 1587.59L151.98 1587.59C151.99 1587.37 152.052 1587.16 152.168 1586.97C152.283 1586.77 152.445 1586.61 152.653 1586.49C152.86 1586.37 153.106 1586.31 153.392 1586.31C153.701 1586.31 153.976 1586.39 154.219 1586.54C154.459 1586.69 154.65 1586.92 154.79 1587.21C154.93 1587.51 155 1587.88 155 1588.31L155 1590.8ZM153.994 1589.57L153.994 1588.57C153.994 1588.22 153.929 1587.97 153.798 1587.82C153.666 1587.66 153.49 1587.58 153.27 1587.58C153.109 1587.58 152.967 1587.62 152.844 1587.7C152.721 1587.77 152.624 1587.89 152.554 1588.03C152.484 1588.17 152.449 1588.34 152.449 1588.54L152.449 1589.57L153.994 1589.57ZM151.616 1589.57L151.616 1588.66C151.616 1588.49 151.587 1588.34 151.528 1588.21C151.468 1588.08 151.383 1587.97 151.273 1587.9C151.163 1587.82 151.031 1587.78 150.878 1587.78C150.668 1587.78 150.498 1587.85 150.369 1588C150.241 1588.15 150.176 1588.36 150.176 1588.63L150.176 1589.57L151.616 1589.57ZM149.102 1581.59C149.102 1581.29 149.152 1581 149.253 1580.72C149.353 1580.45 149.513 1580.2 149.733 1579.98C149.953 1579.76 150.244 1579.59 150.608 1579.46C150.97 1579.33 151.414 1579.27 151.94 1579.26C152.435 1579.26 152.876 1579.32 153.264 1579.43C153.651 1579.54 153.979 1579.7 154.25 1579.91C154.521 1580.11 154.727 1580.36 154.869 1580.65C155.009 1580.94 155.08 1581.27 155.08 1581.63C155.08 1582.02 155.005 1582.36 154.855 1582.66C154.704 1582.96 154.498 1583.2 154.239 1583.38C153.977 1583.56 153.684 1583.67 153.358 1583.7L153.358 1582.49C153.57 1582.44 153.735 1582.34 153.852 1582.19C153.968 1582.04 154.026 1581.85 154.026 1581.63C154.026 1581.25 153.861 1580.96 153.531 1580.77C153.2 1580.57 152.746 1580.47 152.17 1580.47L152.17 1580.51C152.341 1580.59 152.488 1580.71 152.611 1580.86C152.732 1581.01 152.826 1581.18 152.892 1581.37C152.958 1581.56 152.991 1581.76 152.991 1581.97C152.991 1582.32 152.911 1582.62 152.75 1582.89C152.589 1583.16 152.367 1583.37 152.085 1583.53C151.803 1583.68 151.481 1583.76 151.119 1583.76C150.729 1583.76 150.382 1583.67 150.077 1583.49C149.772 1583.31 149.533 1583.06 149.361 1582.73C149.187 1582.4 149.1 1582.02 149.102 1581.59ZM150.068 1581.58C150.068 1581.77 150.114 1581.94 150.205 1582.09C150.295 1582.24 150.418 1582.36 150.571 1582.44C150.724 1582.53 150.896 1582.57 151.085 1582.57C151.277 1582.57 151.449 1582.53 151.602 1582.44C151.754 1582.36 151.875 1582.24 151.966 1582.1C152.055 1581.95 152.099 1581.78 152.099 1581.59C152.099 1581.45 152.073 1581.32 152.02 1581.2C151.967 1581.07 151.894 1580.97 151.801 1580.88C151.706 1580.79 151.598 1580.72 151.474 1580.67C151.351 1580.62 151.221 1580.59 151.082 1580.59C150.899 1580.59 150.73 1580.64 150.577 1580.72C150.423 1580.81 150.3 1580.92 150.207 1581.07C150.115 1581.22 150.068 1581.39 150.068 1581.58ZM150.855 1575.22C150.626 1575.24 150.448 1575.34 150.321 1575.51C150.194 1575.69 150.131 1575.92 150.131 1576.22C150.131 1576.42 150.159 1576.59 150.216 1576.72C150.271 1576.86 150.348 1576.97 150.446 1577.04C150.545 1577.11 150.656 1577.15 150.781 1577.15C150.885 1577.15 150.976 1577.13 151.054 1577.08C151.132 1577.04 151.199 1576.97 151.256 1576.88C151.311 1576.8 151.359 1576.7 151.401 1576.59C151.44 1576.48 151.474 1576.36 151.503 1576.23L151.628 1575.71C151.685 1575.45 151.76 1575.22 151.855 1575.01C151.95 1574.8 152.066 1574.61 152.205 1574.46C152.343 1574.3 152.506 1574.18 152.693 1574.1C152.881 1574.01 153.096 1573.96 153.338 1573.96C153.694 1573.96 154.003 1574.06 154.264 1574.24C154.524 1574.41 154.725 1574.67 154.869 1575.01C155.011 1575.34 155.082 1575.75 155.082 1576.22C155.082 1576.69 155.01 1577.1 154.866 1577.45C154.723 1577.79 154.509 1578.07 154.227 1578.26C153.943 1578.45 153.592 1578.56 153.173 1578.56L153.173 1577.37C153.368 1577.36 153.531 1577.31 153.662 1577.21C153.791 1577.11 153.888 1576.97 153.955 1576.81C154.019 1576.64 154.051 1576.45 154.051 1576.24C154.051 1576.03 154.021 1575.85 153.96 1575.69C153.9 1575.54 153.815 1575.42 153.707 1575.33C153.599 1575.25 153.475 1575.2 153.335 1575.2C153.205 1575.2 153.095 1575.24 153.006 1575.32C152.917 1575.4 152.841 1575.51 152.778 1575.66C152.716 1575.8 152.659 1575.98 152.608 1576.19L152.449 1576.83C152.33 1577.32 152.143 1577.7 151.889 1577.99C151.635 1578.27 151.294 1578.41 150.864 1578.41C150.511 1578.41 150.204 1578.32 149.94 1578.13C149.677 1577.94 149.472 1577.68 149.324 1577.34C149.176 1577.01 149.102 1576.63 149.102 1576.21C149.102 1575.77 149.176 1575.4 149.324 1575.08C149.472 1574.75 149.677 1574.5 149.94 1574.32C150.204 1574.14 150.509 1574.05 150.855 1574.04L150.855 1575.22ZM151.611 1570.44L152.571 1570.44L152.571 1573.09L151.611 1573.09L151.611 1570.44ZM149.182 1566.89L155 1566.89L155 1568.12L150.349 1568.12L150.349 1568.15L151.185 1569.48L150.094 1569.48L149.182 1568.04L149.182 1566.89ZM155 1565.27L150.227 1562.86L150.188 1562.86L150.188 1565.67L149.182 1565.67L149.182 1561.59L150.202 1561.59L155 1564L155 1565.27Z" fill="black"/>
<path d="M162.818 1628.44C162.597 1628.44 162.395 1628.39 162.213 1628.28C162.031 1628.17 161.886 1628.03 161.778 1627.84C161.67 1627.66 161.616 1627.46 161.616 1627.24C161.616 1627.05 161.659 1626.87 161.744 1626.7C161.83 1626.54 161.945 1626.4 162.092 1626.29C162.238 1626.19 162.403 1626.12 162.586 1626.1L162.586 1626.74C162.479 1626.76 162.393 1626.82 162.326 1626.91C162.258 1627.01 162.224 1627.12 162.224 1627.24C162.224 1627.35 162.25 1627.45 162.303 1627.54C162.355 1627.63 162.427 1627.7 162.518 1627.75C162.607 1627.81 162.707 1627.84 162.816 1627.84C162.925 1627.84 163.026 1627.81 163.116 1627.75C163.206 1627.7 163.278 1627.63 163.332 1627.54C163.386 1627.45 163.413 1627.35 163.413 1627.24C163.413 1627.12 163.379 1627.01 163.313 1626.92C163.244 1626.83 163.157 1626.78 163.05 1626.75L163.05 1626.12C163.234 1626.14 163.398 1626.2 163.545 1626.31C163.691 1626.41 163.807 1626.54 163.892 1626.71C163.977 1626.87 164.02 1627.05 164.02 1627.24C164.02 1627.46 163.966 1627.66 163.858 1627.84C163.75 1628.03 163.605 1628.17 163.423 1628.28C163.241 1628.39 163.04 1628.44 162.818 1628.44ZM165.068 1627.26C165.068 1627.57 165.01 1627.86 164.893 1628.13C164.777 1628.4 164.616 1628.64 164.41 1628.85C164.202 1629.05 163.963 1629.22 163.692 1629.33C163.42 1629.45 163.129 1629.51 162.818 1629.51C162.507 1629.5 162.216 1629.45 161.945 1629.33C161.673 1629.21 161.435 1629.05 161.229 1628.84C161.021 1628.64 160.859 1628.4 160.743 1628.13C160.626 1627.86 160.568 1627.57 160.568 1627.26C160.568 1626.94 160.626 1626.65 160.743 1626.38C160.859 1626.11 161.021 1625.87 161.229 1625.67C161.435 1625.46 161.673 1625.3 161.945 1625.18C162.216 1625.07 162.507 1625.01 162.818 1625.01C163.129 1625 163.42 1625.06 163.692 1625.18C163.963 1625.29 164.202 1625.46 164.41 1625.66C164.616 1625.87 164.777 1626.11 164.893 1626.38C165.01 1626.65 165.068 1626.94 165.068 1627.26ZM164.359 1627.26C164.359 1627.04 164.319 1626.84 164.239 1626.65C164.16 1626.47 164.05 1626.3 163.909 1626.16C163.767 1626.02 163.604 1625.91 163.419 1625.83C163.233 1625.75 163.033 1625.71 162.82 1625.72C162.606 1625.72 162.406 1625.76 162.219 1625.84C162.032 1625.92 161.868 1626.03 161.727 1626.17C161.587 1626.31 161.477 1626.47 161.397 1626.66C161.317 1626.84 161.278 1627.04 161.278 1627.26C161.278 1627.47 161.317 1627.67 161.397 1627.85C161.477 1628.04 161.587 1628.2 161.729 1628.34C161.87 1628.48 162.034 1628.59 162.222 1628.67C162.408 1628.76 162.607 1628.8 162.82 1628.8C163.032 1628.8 163.231 1628.76 163.417 1628.68C163.602 1628.6 163.765 1628.49 163.907 1628.35C164.048 1628.2 164.158 1628.04 164.239 1627.85C164.319 1627.67 164.359 1627.47 164.359 1627.26ZM162.164 1618.89L162.164 1619.82C162.043 1619.84 161.936 1619.88 161.842 1619.93C161.747 1619.98 161.666 1620.05 161.599 1620.13C161.533 1620.21 161.482 1620.31 161.446 1620.42C161.411 1620.52 161.393 1620.64 161.393 1620.76C161.393 1620.99 161.449 1621.19 161.561 1621.35C161.672 1621.52 161.834 1621.65 162.047 1621.74C162.259 1621.84 162.516 1621.88 162.818 1621.88C163.129 1621.88 163.391 1621.84 163.602 1621.74C163.814 1621.65 163.974 1621.52 164.082 1621.35C164.19 1621.19 164.244 1620.99 164.244 1620.77C164.244 1620.65 164.227 1620.53 164.195 1620.43C164.162 1620.32 164.114 1620.23 164.052 1620.14C163.988 1620.06 163.911 1619.99 163.82 1619.94C163.729 1619.88 163.625 1619.85 163.509 1619.82L163.513 1618.89C163.713 1618.92 163.906 1618.98 164.092 1619.07C164.277 1619.17 164.442 1619.3 164.589 1619.46C164.734 1619.62 164.849 1619.81 164.934 1620.03C165.018 1620.26 165.06 1620.51 165.06 1620.79C165.06 1621.18 164.972 1621.52 164.795 1621.83C164.619 1622.14 164.364 1622.38 164.031 1622.55C163.697 1622.73 163.293 1622.82 162.818 1622.82C162.342 1622.82 161.938 1622.73 161.604 1622.55C161.27 1622.37 161.016 1622.13 160.841 1621.82C160.665 1621.51 160.577 1621.17 160.577 1620.79C160.577 1620.53 160.612 1620.3 160.683 1620.08C160.754 1619.87 160.858 1619.67 160.994 1619.51C161.129 1619.34 161.295 1619.2 161.491 1619.1C161.687 1618.99 161.911 1618.92 162.164 1618.89ZM162.818 1614.22C163.294 1614.22 163.699 1614.31 164.033 1614.49C164.366 1614.67 164.621 1614.91 164.798 1615.22C164.972 1615.53 165.06 1615.88 165.06 1616.26C165.06 1616.65 164.972 1617 164.795 1617.31C164.619 1617.62 164.364 1617.86 164.031 1618.04C163.697 1618.22 163.293 1618.31 162.818 1618.31C162.342 1618.31 161.938 1618.22 161.604 1618.04C161.27 1617.86 161.016 1617.62 160.841 1617.31C160.665 1617 160.577 1616.65 160.577 1616.26C160.577 1615.88 160.665 1615.53 160.841 1615.22C161.016 1614.91 161.27 1614.67 161.604 1614.49C161.938 1614.31 162.342 1614.22 162.818 1614.22ZM162.818 1615.16C162.51 1615.16 162.25 1615.2 162.038 1615.29C161.827 1615.38 161.666 1615.51 161.557 1615.68C161.447 1615.85 161.393 1616.04 161.393 1616.26C161.393 1616.49 161.447 1616.68 161.557 1616.85C161.666 1617.01 161.827 1617.14 162.038 1617.24C162.25 1617.33 162.51 1617.37 162.818 1617.37C163.126 1617.37 163.386 1617.33 163.598 1617.24C163.81 1617.14 163.97 1617.01 164.08 1616.85C164.189 1616.68 164.244 1616.49 164.244 1616.26C164.244 1616.04 164.189 1615.85 164.08 1615.68C163.97 1615.51 163.81 1615.38 163.598 1615.29C163.386 1615.2 163.126 1615.16 162.818 1615.16ZM165 1613.54L160.636 1613.54L160.636 1611.82C160.636 1611.48 160.7 1611.2 160.826 1610.97C160.951 1610.74 161.125 1610.56 161.348 1610.44C161.57 1610.31 161.825 1610.25 162.115 1610.25C162.405 1610.25 162.661 1610.31 162.882 1610.44C163.104 1610.56 163.276 1610.74 163.4 1610.98C163.523 1611.22 163.585 1611.5 163.585 1611.84L163.585 1612.94L162.846 1612.94L162.846 1611.99C162.846 1611.81 162.815 1611.66 162.754 1611.55C162.692 1611.43 162.606 1611.35 162.496 1611.29C162.386 1611.23 162.259 1611.2 162.115 1611.2C161.97 1611.2 161.844 1611.23 161.736 1611.29C161.626 1611.35 161.542 1611.43 161.482 1611.55C161.421 1611.67 161.391 1611.81 161.391 1611.99L161.391 1612.61L165 1612.61L165 1613.54ZM160.636 1609.91L160.636 1608.87L162.516 1607.88L162.516 1607.84L160.636 1606.84L160.636 1605.81L163.457 1607.4L165 1607.4L165 1608.32L163.457 1608.32L160.636 1609.91ZM165 1605.3L160.636 1605.3L160.636 1603.58C160.636 1603.25 160.695 1602.97 160.813 1602.74C160.93 1602.5 161.095 1602.33 161.31 1602.2C161.523 1602.08 161.773 1602.02 162.062 1602.02C162.352 1602.02 162.601 1602.08 162.81 1602.21C163.017 1602.33 163.176 1602.51 163.287 1602.75C163.398 1602.99 163.453 1603.27 163.453 1603.61L163.453 1604.76L162.712 1604.76L162.712 1603.76C162.712 1603.58 162.688 1603.43 162.639 1603.32C162.591 1603.2 162.518 1603.11 162.422 1603.06C162.325 1603 162.205 1602.97 162.062 1602.97C161.917 1602.97 161.795 1603 161.695 1603.06C161.596 1603.11 161.521 1603.2 161.469 1603.32C161.417 1603.44 161.391 1603.58 161.391 1603.76L161.391 1604.38L165 1604.38L165 1605.3ZM163.014 1602.95L165 1601.86L165 1602.88L163.014 1603.94L163.014 1602.95ZM160.636 1600.44L165 1600.44L165 1601.37L160.636 1601.37L160.636 1600.44ZM162.047 1596.79C161.943 1596.82 161.852 1596.86 161.772 1596.92C161.691 1596.97 161.623 1597.04 161.567 1597.12C161.511 1597.19 161.467 1597.28 161.438 1597.38C161.408 1597.48 161.393 1597.59 161.393 1597.71C161.393 1597.93 161.448 1598.12 161.559 1598.29C161.67 1598.46 161.831 1598.59 162.043 1598.69C162.253 1598.78 162.51 1598.83 162.814 1598.83C163.118 1598.83 163.376 1598.78 163.589 1598.69C163.803 1598.6 163.965 1598.47 164.077 1598.3C164.188 1598.13 164.244 1597.93 164.244 1597.7C164.244 1597.49 164.207 1597.31 164.133 1597.16C164.058 1597.01 163.952 1596.9 163.815 1596.82C163.679 1596.74 163.518 1596.7 163.332 1596.7L163.359 1596.51L163.359 1597.64L162.665 1597.64L162.665 1595.81L163.214 1595.81C163.598 1595.81 163.928 1595.89 164.203 1596.06C164.477 1596.22 164.689 1596.44 164.838 1596.73C164.986 1597.01 165.06 1597.34 165.06 1597.7C165.06 1598.11 164.969 1598.47 164.789 1598.78C164.607 1599.09 164.349 1599.33 164.016 1599.5C163.68 1599.68 163.283 1599.76 162.822 1599.76C162.469 1599.76 162.153 1599.71 161.876 1599.61C161.598 1599.5 161.362 1599.36 161.169 1599.17C160.976 1598.99 160.829 1598.77 160.728 1598.52C160.627 1598.28 160.577 1598.01 160.577 1597.72C160.577 1597.47 160.613 1597.24 160.685 1597.03C160.756 1596.82 160.857 1596.63 160.988 1596.46C161.119 1596.3 161.274 1596.16 161.455 1596.06C161.634 1595.95 161.831 1595.88 162.047 1595.85L162.047 1596.79ZM165 1595.12L160.636 1595.12L160.636 1594.2L162.437 1594.2L162.437 1592.33L160.636 1592.33L160.636 1591.4L165 1591.4L165 1592.33L163.197 1592.33L163.197 1594.2L165 1594.2L165 1595.12ZM161.397 1590.81L160.636 1590.81L160.636 1587.23L161.397 1587.23L161.397 1588.56L165 1588.56L165 1589.47L161.397 1589.47L161.397 1590.81Z" fill="black"/>
</svg>
