<svg width="190" height="136" viewBox="0 0 190 136" fill="none" xmlns="http://www.w3.org/2000/svg">
<path d="M0 0H190V136H0V0Z" fill="black"/>
<path d="M29 0H161V136H29V0Z" fill="#292526"/>
<path d="M41 14C41 9.02944 45.0294 5 50 5H139C143.971 5 148 9.02944 148 14V121C148 125.971 143.971 130 139 130H50C45.0294 130 41 125.971 41 121V14Z" fill="black"/>
<path d="M6 9C6 7.34315 7.34315 6 9 6H17C18.6569 6 20 7.34315 20 9V23C20 24.6569 18.6569 26 17 26H9C7.34315 26 6 24.6569 6 23V9Z" fill="#292526"/>
<path d="M6 43C6 41.3431 7.34315 40 9 40H17C18.6569 40 20 41.3431 20 43V57C20 58.6569 18.6569 60 17 60H9C7.34315 60 6 58.6569 6 57V43Z" fill="#292526"/>
<path d="M6 77C6 75.3431 7.34315 74 9 74H17C18.6569 74 20 75.3431 20 77V91C20 92.6569 18.6569 94 17 94H9C7.34315 94 6 92.6569 6 91V77Z" fill="#292526"/>
<path d="M6 111C6 109.343 7.34315 108 9 108H17C18.6569 108 20 109.343 20 111V125C20 126.657 18.6569 128 17 128H9C7.34315 128 6 126.657 6 125V111Z" fill="#292526"/>
<path d="M169 9C169 7.34315 170.343 6 172 6H180C181.657 6 183 7.34315 183 9V23C183 24.6569 181.657 26 180 26H172C170.343 26 169 24.6569 169 23V9Z" fill="#292526"/>
<path d="M169 43C169 41.3431 170.343 40 172 40H180C181.657 40 183 41.3431 183 43V57C183 58.6569 181.657 60 180 60H172C170.343 60 169 58.6569 169 57V43Z" fill="#292526"/>
<path d="M169 77C169 75.3431 170.343 74 172 74H180C181.657 74 183 75.3431 183 77V91C183 92.6569 181.657 94 180 94H172C170.343 94 169 92.6569 169 91V77Z" fill="#292526"/>
<path d="M169 111C169 109.343 170.343 108 172 108H180C181.657 108 183 109.343 183 111V125C183 126.657 181.657 128 180 128H172C170.343 128 169 126.657 169 125V111Z" fill="#292526"/>
</svg>
