<svg width="66" height="66" viewBox="0 0 66 66" fill="none" xmlns="http://www.w3.org/2000/svg">
<path fill-rule="evenodd" clip-rule="evenodd" d="M32.0913 66C40.0677 66 47.3808 63.1496 53.0744 58.4085C53.0744 58.4085 33.2795 60.588 25.926 52.5938C21.861 48.1745 20.426 39.3723 19.9622 35.2402C19.8299 34.5136 19.7607 33.7649 19.7607 33C19.7607 28.4195 22.2404 24.4202 25.926 22.2806C25.926 22.2806 21.8154 19.5938 16.6776 20.625C9.81633 22.0022 1.26436 30.9375 1.26436 35.0625C1.26437 56.7188 13.9313 66 32.0913 66ZM0.125486 25.2337C3.60532 10.7558 16.5963 0 32.0909 0C42.2626 0 53.796 4.97648 56.752 12.375C58.1716 15.9278 57.217 23.6765 53.6699 29.9062C49.5597 37.125 43.7203 37.125 43.7203 37.125C44.1747 35.8348 44.4219 34.4464 44.4219 33C44.4219 33 44.4601 25.82 41.3388 22.6875C36.2011 17.5312 31.971 16.1762 24.898 16.5C24.898 16.5 10.5128 18.5625 0.125486 25.2337ZM66 33C66 27.1992 63.9449 22.6875 61.8898 18.5625C61.8898 18.5625 58.8076 33 50.5872 40.2188C45.6356 44.567 34.1464 45.375 34.1464 45.375C34.1464 45.375 33.0365 45.375 32.0913 45.375C31.1462 45.375 30.4616 45.2938 29.6825 45.139C29.6825 45.139 31.8733 54.3304 41.3388 55.6875C48.5317 56.7188 53.6694 56.7188 58.8072 52.5938C63.9449 46.4062 66 41.788 66 33Z" fill="white"/>
</svg>
