<svg width="398" height="729" viewBox="0 0 398 729" fill="none" xmlns="http://www.w3.org/2000/svg">
<path d="M0.490536 11.9918C0.495068 5.36761 5.86632 0 12.4905 0H385.995C392.622 0 397.995 5.37258 397.995 12V389.803C397.995 393.738 396.066 397.423 392.832 399.665L330.778 442.686C327.579 444.904 325.655 448.536 325.616 452.429L324.745 539.943C324.705 544.028 326.745 547.853 330.159 550.094L392.557 591.059C395.949 593.286 397.986 597.077 397.971 601.135L397.541 717.042C397.516 723.652 392.151 728.997 385.541 728.997H12.0082C5.37758 728.997 0.00367906 723.62 0.00821537 716.989L0.490536 11.9918Z" fill="black"/>
</svg>
