<svg width="101" height="63" viewBox="0 0 101 63" fill="none" xmlns="http://www.w3.org/2000/svg">
<g filter="url(#filter0_i_9_21)">
<path d="M64.2282 0.48994C53.7387 0.489941 41.8895 0.489942 31.2506 0.489942C13.989 0.489941 0 14.4833 0 31.745C0 49.0066 13.9933 63 31.255 63H50.2847C62.2176 63 73.126 56.2572 78.4611 45.5833L89.3231 23.8518C96.0952 10.3029 90.1164 0.258839 74.9703 0.430556C71.7742 0.46679 68.2069 0.48994 64.2282 0.48994Z" fill="#FF0000"/>
</g>
<path d="M64.2282 2.98994L31.2506 2.98994C15.3701 2.98994 2.5 15.8636 2.5 31.745C2.5 47.6259 15.3741 60.5 31.255 60.5H50.2847C61.2705 60.5 71.3132 54.2923 76.2249 44.4656L87.0869 22.7341C90.2654 16.3747 90.152 11.4585 88.2294 8.29404C86.3196 5.15052 82.082 2.85009 74.9986 2.9304C71.7935 2.96673 68.2167 2.98994 64.2282 2.98994Z" stroke="#FF0000" stroke-width="5"/>
<path d="M54.6203 36.2734C55.1266 36.7984 55.1266 37.6516 54.6203 38.1766L50.3488 42.6063C49.8426 43.1313 49.0199 43.1313 48.5137 42.6063L41.5 35.2672L34.4863 42.6063C33.9801 43.1313 33.1574 43.1313 32.6512 42.6063L28.3797 38.1766C27.8734 37.6516 27.8734 36.7984 28.3797 36.2734L35.4566 29L28.3797 21.7266C27.8734 21.2016 27.8734 20.3484 28.3797 19.8234L32.6512 15.3938C33.1574 14.8688 33.9801 14.8688 34.4863 15.3938L41.5 22.7328L48.5137 15.3938C49.0199 14.8688 49.8426 14.8688 50.3488 15.3938L54.6203 19.8234C55.1266 20.3484 55.1266 21.2016 54.6203 21.7266L47.5434 29L54.6203 36.2734Z" fill="#280000"/>
<defs>
<filter id="filter0_i_9_21" x="0" y="0.428387" width="92.0918" height="62.5716" filterUnits="userSpaceOnUse" color-interpolation-filters="sRGB">
<feFlood flood-opacity="0" result="BackgroundImageFix"/>
<feBlend mode="normal" in="SourceGraphic" in2="BackgroundImageFix" result="shape"/>
<feColorMatrix in="SourceAlpha" type="matrix" values="0 0 0 0 0 0 0 0 0 0 0 0 0 0 0 0 0 0 127 0" result="hardAlpha"/>
<feOffset/>
<feGaussianBlur stdDeviation="6"/>
<feComposite in2="hardAlpha" operator="arithmetic" k2="-1" k3="1"/>
<feColorMatrix type="matrix" values="0 0 0 0 0 0 0 0 0 0 0 0 0 0 0 0 0 0 1 0"/>
<feBlend mode="normal" in2="shape" result="effect1_innerShadow_9_21"/>
</filter>
</defs>
</svg>
