<svg width="256" height="256" viewBox="0 0 256 256" fill="none" xmlns="http://www.w3.org/2000/svg">
<mask id="mask0_221_18" style="mask-type:alpha" maskUnits="userSpaceOnUse" x="0" y="0" width="256" height="256">
<rect width="256" height="256" fill="#1C1C1C"/>
</mask>
<g mask="url(#mask0_221_18)">
<rect width="256" height="256" fill="#1C1C1C"/>
<rect x="-3.68438" y="-2.08632" width="104.349" height="128.433" transform="matrix(0.963189 -0.268825 0.264937 0.964266 89.6769 168.583)" fill="#242424" stroke="black" stroke-width="6"/>
<path d="M109.5 119.913C138.488 119.913 162 96.466 162 67.5275C162 38.5891 138.488 15.1417 109.5 15.1417C80.5116 15.1417 57 38.5891 57 67.5275C57 96.466 80.5116 119.913 109.5 119.913Z" fill="#242424" stroke="black" stroke-width="6"/>
<line x1="6.5" y1="-6.5" x2="47.0455" y2="-6.5" transform="matrix(0.280136 0.959961 -0.958762 0.284209 121 48.3779)" stroke="black" stroke-width="13" stroke-linecap="round"/>
<line x1="6.5" y1="-6.5" x2="47.0455" y2="-6.5" transform="matrix(0.280136 0.959961 -0.958762 0.284209 75 61.4803)" stroke="black" stroke-width="13" stroke-linecap="round"/>
<rect y="87.6851" width="256" height="82.6457" fill="black"/>
<path d="M54.12 135.575V93.4548H73.048V99.7988H63.428V110.251H70.76V116.699H63.428V129.283H73.152V135.575H54.12ZM78.5218 135.575L79.2498 93.4548H89.2338L93.8618 117.947L98.8538 93.4548H108.474L109.202 135.575H102.598L101.818 107.547L96.9298 135.575H91.0538L85.8538 107.339L85.2298 135.575H78.5218ZM116.591 135.575V93.4548H130.735C133.266 93.4548 135.346 93.9402 136.975 94.9108C138.604 95.8468 139.818 97.2335 140.615 99.0708C141.412 100.873 141.811 103.075 141.811 105.675C141.811 108.933 141.274 111.429 140.199 113.163C139.124 114.861 137.668 116.04 135.831 116.699C133.994 117.357 131.931 117.687 129.643 117.687H125.899V135.575H116.591ZM125.899 111.187H129.019C130.163 111.187 131.03 110.979 131.619 110.563C132.208 110.147 132.59 109.523 132.763 108.691C132.971 107.859 133.075 106.801 133.075 105.519C133.075 104.444 132.988 103.508 132.815 102.711C132.676 101.879 132.312 101.22 131.723 100.735C131.134 100.249 130.215 100.007 128.967 100.007H125.899V111.187ZM151.394 135.575V100.371H145.05V93.4548H167.046V100.371H160.754V135.575H151.394ZM177.358 135.575V118.363L169.35 93.4548H178.138L182.142 106.767L185.73 93.4548H194.154L186.302 118.363V135.575H177.358Z" fill="#242424"/>
<path d="M61.176 163.352C59.4587 163.352 58.096 163.044 57.088 162.428C56.0987 161.793 55.3987 160.916 54.988 159.796C54.5773 158.657 54.372 157.322 54.372 155.792V147.616C54.372 146.048 54.5773 144.704 54.988 143.584C55.3987 142.445 56.0987 141.568 57.088 140.952C58.096 140.336 59.4587 140.028 61.176 140.028C62.856 140.028 64.1627 140.308 65.096 140.868C66.048 141.409 66.72 142.174 67.112 143.164C67.504 144.153 67.7 145.292 67.7 146.58V148.54H62.8V146.272C62.8 145.824 62.772 145.394 62.716 144.984C62.6787 144.573 62.548 144.237 62.324 143.976C62.1 143.696 61.7173 143.556 61.176 143.556C60.6533 143.556 60.2613 143.696 60 143.976C59.7573 144.256 59.5987 144.61 59.524 145.04C59.468 145.45 59.44 145.889 59.44 146.356V157.024C59.44 157.528 59.4773 157.994 59.552 158.424C59.6453 158.834 59.8133 159.17 60.056 159.432C60.3173 159.674 60.6907 159.796 61.176 159.796C61.6987 159.796 62.072 159.665 62.296 159.404C62.52 159.124 62.66 158.769 62.716 158.34C62.772 157.91 62.8 157.472 62.8 157.024V154.644H67.7V156.604C67.7 157.892 67.504 159.049 67.112 160.076C66.7387 161.084 66.076 161.886 65.124 162.484C64.1907 163.062 62.8747 163.352 61.176 163.352ZM70.9613 163.016V140.336H75.9733V149.52H79.4733V140.336H84.5133V163.016H79.4733V153.104H75.9733V163.016H70.9613ZM87.2952 163.016L91.5792 140.336H97.2912L101.519 163.016H96.8992L96.1432 158.228H92.8112L92.0272 163.016H87.2952ZM93.2592 155.232H95.6672L94.4632 146.384L93.2592 155.232ZM104.229 163.016V140.336H110.473C112.004 140.336 113.329 140.504 114.449 140.84C115.569 141.176 116.437 141.782 117.053 142.66C117.688 143.518 118.005 144.741 118.005 146.328C118.005 147.261 117.93 148.092 117.781 148.82C117.632 149.548 117.352 150.182 116.941 150.724C116.549 151.246 115.98 151.685 115.233 152.04L118.341 163.016H113.161L110.669 152.852H109.241V163.016H104.229ZM109.241 149.968H110.641C111.35 149.968 111.901 149.846 112.293 149.604C112.685 149.342 112.956 148.978 113.105 148.512C113.273 148.026 113.357 147.448 113.357 146.776C113.357 145.805 113.18 145.049 112.825 144.508C112.47 143.966 111.817 143.696 110.865 143.696H109.241V149.968ZM120.346 163.016L124.63 140.336H130.342L134.57 163.016H129.95L129.194 158.228H125.862L125.078 163.016H120.346ZM126.31 155.232H128.718L127.514 146.384L126.31 155.232ZM143.421 163.352C141.703 163.352 140.341 163.044 139.333 162.428C138.343 161.793 137.643 160.916 137.233 159.796C136.822 158.657 136.617 157.322 136.617 155.792V147.616C136.617 146.048 136.822 144.704 137.233 143.584C137.643 142.445 138.343 141.568 139.333 140.952C140.341 140.336 141.703 140.028 143.421 140.028C145.101 140.028 146.407 140.308 147.341 140.868C148.293 141.409 148.965 142.174 149.357 143.164C149.749 144.153 149.945 145.292 149.945 146.58V148.54H145.045V146.272C145.045 145.824 145.017 145.394 144.961 144.984C144.923 144.573 144.793 144.237 144.569 143.976C144.345 143.696 143.962 143.556 143.421 143.556C142.898 143.556 142.506 143.696 142.245 143.976C142.002 144.256 141.843 144.61 141.769 145.04C141.713 145.45 141.685 145.889 141.685 146.356V157.024C141.685 157.528 141.722 157.994 141.797 158.424C141.89 158.834 142.058 159.17 142.301 159.432C142.562 159.674 142.935 159.796 143.421 159.796C143.943 159.796 144.317 159.665 144.541 159.404C144.765 159.124 144.905 158.769 144.961 158.34C145.017 157.91 145.045 157.472 145.045 157.024V154.644H149.945V156.604C149.945 157.892 149.749 159.049 149.357 160.076C148.983 161.084 148.321 161.886 147.369 162.484C146.435 163.062 145.119 163.352 143.421 163.352ZM155.166 163.016V144.06H151.75V140.336H163.594V144.06H160.206V163.016H155.166ZM166.011 163.016V140.336H176.203V143.752H171.023V149.38H174.971V152.852H171.023V159.628H176.259V163.016H166.011ZM178.954 163.016V140.336H185.198C186.729 140.336 188.054 140.504 189.174 140.84C190.294 141.176 191.162 141.782 191.778 142.66C192.413 143.518 192.73 144.741 192.73 146.328C192.73 147.261 192.655 148.092 192.506 148.82C192.357 149.548 192.077 150.182 191.666 150.724C191.274 151.246 190.705 151.685 189.958 152.04L193.066 163.016H187.886L185.394 152.852H183.966V163.016H178.954ZM183.966 149.968H185.366C186.075 149.968 186.626 149.846 187.018 149.604C187.41 149.342 187.681 148.978 187.83 148.512C187.998 148.026 188.082 147.448 188.082 146.776C188.082 145.805 187.905 145.049 187.55 144.508C187.195 143.966 186.542 143.696 185.59 143.696H183.966V149.968Z" fill="#242424"/>
</g>
</svg>
